<!DOCTYPE svg PUBLIC "-//W3C//DTD SVG 1.1//EN" "http://www.w3.org/Graphics/SVG/1.1/DTD/svg11.dtd">
<!-- Uploaded to: SVG Repo, www.svgrepo.com, Transformed by: SVG Repo Mixer Tools -->
<svg fill="#44107A" version="1.1" id="Capa_1" xmlns="http://www.w3.org/2000/svg" xmlns:xlink="http://www.w3.org/1999/xlink" width="800px" height="800px" viewBox="0 0 929.75 929.75" xml:space="preserve" stroke="#44107A">
<g id="SVGRepo_bgCarrier" stroke-width="0"/>
<g id="SVGRepo_tracerCarrier" stroke-linecap="round" stroke-linejoin="round"/>
<g id="SVGRepo_iconCarrier"> <g> <g> <path d="M913.675,700.075c3.2,0,3.2-5,0-5S910.475,700.075,913.675,700.075z"/> <path d="M417.075,926.375c11.699,4.5,24.6,4.5,36.3,0c266.7-102.7,378.3-341.1,399.5-392.1c2.5-6.101,3.899-12.601,3.899-19.301 V200.976c0-20.301-12.3-38.7-31.199-46.301l-371.5-151c-12.101-4.899-25.601-4.899-37.7,0l-371.5,151c-18.9,7.7-31.2,26-31.2,46.4 v314c0,6.6,1.3,13.2,3.9,19.3C38.775,585.275,150.275,823.675,417.075,926.375z M289.475,257.875c0-17.899,14.601-32.5,32.5-32.5 h81.7v-50.8c0-17.9,14.6-32.5,32.5-32.5s32.5,14.6,32.5,32.5v50.8h62.9c17.899,0,32.5,14.601,32.5,32.5 c0,17.9-14.5,32.5-32.5,32.5h-62.9v99h78.2c17.899,0,32.5,14.6,32.5,32.5v164.1c0,17.9-14.601,32.5-32.5,32.5h-78.2v50.801 c0,17.899-14.6,32.5-32.5,32.5s-32.5-14.601-32.5-32.5v-50.801h-64.9c-17.899,0-32.5-14.6-32.5-32.5 c0-17.899,14.601-32.5,32.5-32.5h64.9v-99.1h-81.8c-17.9,0-32.5-14.6-32.5-32.5v-164H289.475z"/> <rect x="468.675" y="454.375" width="45.7" height="99.1"/> <rect x="354.475" y="290.375" width="49.3" height="99.1"/> </g> </g> </g>
</svg>