<?xml version="1.0" encoding="UTF-8"?>
<svg version="1.1" xmlns="http://www.w3.org/2000/svg" width="512" height="512">
<path d="M0 0 C0.98790024 -0.01591187 1.97580048 -0.03182373 2.99363708 -0.04821777 C4.59212242 -0.0485199 4.59212242 -0.0485199 6.22290039 -0.04882812 C7.3189711 -0.05644165 8.41504181 -0.06405518 9.54432678 -0.07189941 C11.86351237 -0.08271017 14.18274669 -0.08554958 16.50195312 -0.08105469 C20.05364055 -0.08008275 23.6031659 -0.12168808 27.15454102 -0.16601562 C29.40648963 -0.1712227 31.65844576 -0.17391082 33.91040039 -0.17382812 C35.50584938 -0.19842102 35.50584938 -0.19842102 37.13352966 -0.22351074 C44.4344432 -0.1549593 44.4344432 -0.1549593 47.6887207 2.52294922 C49.30622981 5.76726347 50.44913264 8.88268708 51.46508789 12.36523438 C51.87494938 13.70276415 52.28578608 15.03999541 52.69750977 16.37695312 C53.32741486 18.46515863 53.9484502 20.55496606 54.55224609 22.65087891 C55.14466912 24.68892863 55.77092519 26.71405878 56.40258789 28.74023438 C56.7594165 29.94953613 57.11624512 31.15883789 57.48388672 32.40478516 C58.94956463 35.68712778 58.94956463 35.68712778 62.42871094 37.39990234 C68.65748475 39.1150422 72.46956633 37.51666443 77.97680664 34.47851562 C79.05833008 33.89521484 80.13985352 33.31191406 81.25415039 32.7109375 C83.5084037 31.47435577 85.76100944 30.23476585 88.01196289 28.9921875 C89.09348633 28.41017578 90.17500977 27.82816406 91.28930664 27.22851562 C92.26706055 26.69025146 93.24481445 26.1519873 94.25219727 25.59741211 C97.51020101 24.2657721 99.64638059 24.00081727 103.13305664 24.41992188 C104.99658203 25.49194336 104.99658203 25.49194336 106.66821289 27.10351562 C107.34513184 27.74401855 108.02205078 28.38452148 108.71948242 29.04443359 C109.51596191 29.82834473 110.31244141 30.61225586 111.13305664 31.41992188 C112.15130407 32.39391423 113.17075639 33.36664792 114.19116211 34.33837891 C117.08507445 37.10702561 119.94352961 39.90950835 122.79003906 42.72680664 C123.98431242 43.90437688 125.18394421 45.07653555 126.38867188 46.2434082 C128.14777249 47.9477823 129.88987954 49.6680006 131.62915039 51.39257812 C132.4368412 52.16626488 132.4368412 52.16626488 133.260849 52.95558167 C136.58294429 56.29681825 138.10365522 58.6651236 138.13305664 63.41992188 C137.28442383 66.1171875 137.28442383 66.1171875 135.92993164 68.82617188 C135.2009668 70.31310547 135.2009668 70.31310547 134.45727539 71.83007812 C133.9377832 72.84972656 133.41829102 73.869375 132.88305664 74.91992188 C132.12702148 76.44939453 132.12702148 76.44939453 131.35571289 78.00976562 C129.3753689 82.00683788 127.36875514 85.98001695 125.26196289 89.91210938 C123.43209758 93.97706968 124.50696353 97.35288309 125.7565918 101.47851562 C127.89392484 104.49307262 130.47631594 104.82704392 133.96899414 105.85742188 C134.64475494 106.06423584 135.32051575 106.2710498 136.01675415 106.48413086 C138.1764016 107.14410532 140.34123677 107.78392368 142.50805664 108.41992188 C144.6673904 109.0568338 146.82473862 109.69833525 148.97793579 110.35571289 C150.93651102 110.95343474 152.90064293 111.53285774 154.86499023 112.11132812 C160.12346075 114.2169162 160.12346075 114.2169162 162.13305664 117.41992188 C162.72092487 121.07718839 162.69313232 124.69109763 162.66430664 128.38867188 C162.66813354 129.46113159 162.67196045 130.53359131 162.67590332 131.6385498 C162.6786238 133.90471333 162.67125317 136.17090818 162.65454102 138.43701172 C162.63313458 141.90728715 162.65433939 145.37549214 162.67993164 148.84570312 C162.67728839 151.04753062 162.67216347 153.24935682 162.66430664 155.45117188 C162.67240356 156.4897937 162.68050049 157.52841553 162.68884277 158.59851074 C162.59645187 165.69017672 162.59645187 165.69017672 160.5300293 168.94433594 C157.52029157 170.7971425 154.6142844 171.90343754 151.25024414 172.99804688 C150.59476593 173.21434753 149.93928772 173.43064819 149.26394653 173.65350342 C147.88572048 174.10599398 146.50561004 174.55278072 145.1237793 174.99414062 C143.00434012 175.67110897 140.89072347 176.36417822 138.77758789 177.06054688 C128.49385258 180.41992188 128.49385258 180.41992188 126.13305664 180.41992188 C124.39764011 183.72954138 123.43325526 186.68280368 123.13305664 190.41992188 C124.72532085 195.36869091 127.26659198 199.70976235 129.88305664 204.16992188 C130.90062148 205.96201494 131.90860455 207.75884742 132.9085083 209.56085205 C133.81752428 211.18986007 134.75146639 212.80488556 135.68676758 214.41894531 C137.22354807 217.607687 138.00479671 219.88064098 138.13305664 223.41992188 C136.25276672 228.75621283 132.77535285 232.18885399 128.82055664 236.06054688 C128.21042725 236.6688031 127.60029785 237.27705933 126.97167969 237.90374756 C125.68750673 239.18122784 124.3997557 240.4551203 123.10864258 241.72558594 C121.13235171 243.67061566 119.16702971 245.62621184 117.20336914 247.58398438 C115.95138741 248.82679921 114.69880378 250.06900807 113.44555664 251.31054688 C112.85798584 251.8938678 112.27041504 252.47718872 111.66503906 253.07818604 C105.43769647 259.19688041 105.43769647 259.19688041 100.79711914 259.99023438 C93.50561903 259.80686332 86.86863685 254.78884729 80.68188477 251.25048828 C78.91148388 250.24570478 77.12886917 249.26588139 75.34399414 248.28710938 C74.29518066 247.6901123 73.24636719 247.09311523 72.16577148 246.47802734 C68.3969437 245.16309419 66.70351505 245.80790896 63.13305664 247.41992188 C63.68735352 247.97679687 64.24165039 248.53367188 64.81274414 249.10742188 C69.55398532 254.10175422 72.13643747 257.5681651 73.13305664 264.41992188 C73.76211914 264.43410156 74.39118164 264.44828125 75.03930664 264.46289062 C83.40683106 264.92915328 88.70138876 267.601145 94.44555664 273.66992188 C98.46506266 278.68609015 100.75927387 284.94901053 100.13305664 291.41992188 C101.26743164 291.46117187 102.40180664 291.50242187 103.57055664 291.54492188 C109.77253408 292.34766009 114.60031988 295.60440382 118.74243164 300.20898438 C123.10888559 306.45044502 124.86877033 313.94357097 123.60571289 321.45507812 C122.00688565 327.99524044 118.46567149 333.63459016 115.13305664 339.41992188 C114.44469052 340.63419365 113.75719887 341.84896155 113.07055664 343.06420898 C108.71924499 350.74357247 104.2809647 358.37252565 99.76977539 365.95898438 C96.44429732 371.56238251 93.19825733 377.21157684 89.94555664 382.85742188 C89.309646 383.96045654 88.67373535 385.06349121 88.01855469 386.19995117 C84.76074546 391.85283608 81.50747826 397.50830556 78.25805664 403.16601562 C76.98753772 405.37583184 75.71670808 407.58546944 74.44555664 409.79492188 C73.83035156 410.86476318 73.21514648 411.93460449 72.58129883 413.03686523 C68.0402113 420.90900807 63.39559411 428.71428711 58.63623047 436.45654297 C58.17240967 437.21789551 57.70858887 437.97924805 57.23071289 438.76367188 C56.61981812 439.75657227 56.61981812 439.75657227 55.99658203 440.76953125 C54.97852316 442.40482832 54.97852316 442.40482832 55.13305664 444.41992188 C56.87716965 445.6565505 58.68012149 446.81094322 60.50805664 447.91992188 C65.95424869 451.24111393 65.95424869 451.24111393 68.13305664 453.41992188 C69.20904109 461.75466292 66.37089653 466.54203568 62.00805664 473.48242188 C60.72727067 475.58998572 59.44734941 477.69807527 58.16821289 479.80664062 C57.50450684 480.8873584 56.84080078 481.96807617 56.15698242 483.08154297 C54.11802686 486.44471285 52.14528151 489.83859463 50.19165039 493.25195312 C49.56339355 494.34822021 48.93513672 495.4444873 48.2878418 496.57397461 C47.07741221 498.69022131 45.86996127 500.80817502 44.66577148 502.92797852 C44.1148584 503.8818042 43.56394531 504.83562988 42.99633789 505.81835938 C42.51463135 506.66060059 42.0329248 507.5028418 41.53662109 508.37060547 C40.13305664 510.41992188 40.13305664 510.41992188 37.13305664 512.41992188 C29.56617204 513.44111648 25.00282645 510.64141974 18.63305664 506.79492188 C17.13125854 505.91682861 17.13125854 505.91682861 15.59912109 505.02099609 C13.4897535 503.78564317 11.38474793 502.54281507 9.28393555 501.29296875 C6.2681387 499.5002217 3.24091674 497.72914517 0.20727539 495.96679688 C-3.7681243 493.65723175 -7.73931066 491.3407283 -11.70678711 489.01757812 C-21.30636574 483.40313512 -30.94830287 477.86191867 -40.5847168 472.31103516 C-46.01354278 469.18312039 -51.44013617 466.0513374 -56.86694336 462.91992188 C-59.03359919 461.66990309 -61.20026586 460.41990309 -63.36694336 459.16992188 C-67.70027669 456.66992188 -72.03361003 454.16992188 -76.36694336 451.66992188 C-77.44105469 451.05036621 -78.51516602 450.43081055 -79.62182617 449.79248047 C-81.77265117 448.55137095 -83.92304718 447.30951767 -86.07299805 446.06689453 C-91.12565042 443.1477718 -96.18217622 440.23614295 -101.2545166 437.35137939 C-103.05216595 436.32854556 -104.84842542 435.30331254 -106.64428711 434.27734375 C-108.89936784 432.98999452 -111.15704201 431.70717382 -113.41772461 430.4296875 C-116.2627362 428.80216823 -119.07322145 427.13370855 -121.86694336 425.41992188 C-122.54692383 425.01676758 -123.2269043 424.61361328 -123.92749023 424.19824219 C-126.19113868 422.64908255 -127.64814843 421.15974222 -128.43481445 418.49975586 C-129.04787569 411.39596784 -125.3893514 406.15970228 -121.74194336 400.35742188 C-120.46115738 398.24985803 -119.18123613 396.14176848 -117.90209961 394.03320312 C-117.23839355 392.95248535 -116.5746875 391.87176758 -115.89086914 390.75830078 C-113.85191358 387.3951309 -111.87916823 384.00124912 -109.92553711 380.58789062 C-109.29728027 379.49162354 -108.66902344 378.39535645 -108.02172852 377.26586914 C-106.81129892 375.14962244 -105.60384799 373.03166873 -104.3996582 370.91186523 C-103.84874512 369.95803955 -103.29783203 369.00421387 -102.73022461 368.02148438 C-102.24851807 367.17924316 -101.76681152 366.33700195 -101.27050781 365.46923828 C-99.86694336 363.41992188 -99.86694336 363.41992188 -96.86694336 361.41992188 C-89.1528195 360.31790418 -84.34346701 363.50553945 -77.86694336 367.41992188 C-77.48866819 357.23385849 -78.32527176 347.88022149 -80.27449036 337.89721298 C-80.72422784 335.5927587 -81.15650448 333.28555907 -81.58508301 330.9770813 C-82.49737959 326.08013764 -83.4310626 321.18740404 -84.36694336 316.29492188 C-85.45314508 310.60765308 -86.53004862 304.91884111 -87.58857727 299.22635269 C-88.01092596 296.97743083 -88.44740878 294.73158446 -88.8848877 292.48556519 C-93.22103255 269.66453453 -93.22103255 269.66453453 -87.42553711 259.58398438 C-83.642531 254.33138942 -80.23467791 251.57834369 -73.86694336 250.41992188 C-77.40225865 246.20788418 -81.01253504 242.19348347 -85.05053711 238.45507812 C-86.09951172 237.4718457 -86.09951172 237.4718457 -87.16967773 236.46875 C-88.60564841 235.13262724 -90.05659733 233.81244155 -91.52124023 232.5078125 C-94.92713913 229.26727938 -97.34794435 226.84925308 -97.63647461 222.00976562 C-97.14913579 216.69691755 -94.7569699 212.46581028 -92.11694336 207.91992188 C-88.14823118 200.86055412 -88.14823118 200.86055412 -84.50366211 193.63085938 C-84.17325928 192.93782715 -83.84285645 192.24479492 -83.50244141 191.53076172 C-82.48261869 188.14336747 -83.02515261 185.47913955 -84.40991211 182.27929688 C-86.79631853 179.23390959 -89.45203026 178.95120347 -93.14428711 178.22070312 C-98.14974723 177.14397771 -102.94391681 175.57932139 -107.80444336 173.98242188 C-109.19058838 173.54905518 -109.19058838 173.54905518 -110.60473633 173.10693359 C-111.92368896 172.67598389 -111.92368896 172.67598389 -113.26928711 172.23632812 C-114.05811279 171.98310791 -114.84693848 171.7298877 -115.65966797 171.46899414 C-118.62861048 170.05791727 -119.98301464 169.17824011 -121.86694336 166.41992188 C-122.46811066 162.85043011 -122.42705149 159.31767452 -122.39819336 155.70507812 C-122.40393372 154.13324013 -122.40393372 154.13324013 -122.40979004 152.52964783 C-122.41251054 150.3147587 -122.40513978 148.09983752 -122.38842773 145.88500977 C-122.36704254 142.49812966 -122.38821477 139.11337612 -122.41381836 135.7265625 C-122.41117469 133.57356303 -122.4060489 131.42056489 -122.39819336 129.26757812 C-122.40629028 128.25599136 -122.41438721 127.2444046 -122.42272949 126.2021637 C-122.36676396 121.99560775 -122.25062447 119.15002094 -120.27319336 115.38720703 C-117.22719665 112.89688221 -114.63888247 112.09519023 -110.83569336 111.09570312 C-109.45381035 110.70313212 -108.07231065 110.30920976 -106.69116211 109.9140625 C-104.52917077 109.31650871 -102.36564876 108.73208812 -100.19360352 108.17211914 C-91.79239415 106.10433146 -91.79239415 106.10433146 -84.77026367 101.33569336 C-83.21782386 98.45606397 -82.78269515 96.6981195 -82.86694336 93.41992188 C-84.46711873 88.52462883 -86.96097038 84.24183713 -89.61694336 79.85742188 C-90.99109391 77.53550409 -92.3311798 75.20017578 -93.66381836 72.85351562 C-94.58179199 71.32295532 -94.58179199 71.32295532 -95.51831055 69.76147461 C-97.25749322 65.4522434 -97.9522365 61.98995801 -96.86694336 57.41992188 C-94.97621887 54.35040059 -92.55697595 52.03231397 -89.93725586 49.57617188 C-88.87896072 48.53342102 -88.87896072 48.53342102 -87.79928589 47.46960449 C-85.55047025 45.26436321 -83.27207786 43.09271629 -80.99194336 40.91992188 C-79.46520803 39.42977639 -77.9404444 37.93760794 -76.41772461 36.44335938 C-73.63387479 33.72607795 -70.84517821 31.01453168 -68.03149414 28.328125 C-67.4674588 27.78901489 -66.90342346 27.24990479 -66.32229614 26.69445801 C-64.19922561 24.83516304 -62.99155532 24.4316602 -60.14819336 24.16381836 C-56.21214392 24.47102936 -53.83846009 25.6522969 -50.36694336 27.51757812 C-49.13785618 28.16030828 -47.90868702 28.80288168 -46.67944336 29.4453125 C-44.76790538 30.46327531 -42.85935911 31.48650905 -40.95288086 32.51391602 C-39.09779504 33.50801872 -37.23319215 34.48213712 -35.36694336 35.45507812 C-33.71178711 36.34271851 -33.71178711 36.34271851 -32.02319336 37.24829102 C-28.40307606 38.59211395 -26.55698469 38.37848807 -22.86694336 37.41992188 C-21.44381836 37.14148437 -21.44381836 37.14148437 -19.99194336 36.85742188 C-19.29069336 36.71304688 -18.58944336 36.56867187 -17.86694336 36.41992188 C-17.6181543 35.19015625 -17.36936523 33.96039063 -17.11303711 32.69335938 C-15.77448676 26.68224409 -13.8721452 20.88372115 -11.92944336 15.04492188 C-11.58204102 13.96597656 -11.23463867 12.88703125 -10.87670898 11.77539062 C-10.53446289 10.74285156 -10.1922168 9.7103125 -9.83959961 8.64648438 C-9.5328833 7.71400879 -9.22616699 6.7815332 -8.91015625 5.82080078 C-6.91958677 1.2396493 -4.95579488 0.04798495 0 0 Z M6.13305664 16.41992188 C5.82078125 17.34329346 5.50850586 18.26666504 5.18676758 19.21801758 C4.02221692 22.64992336 2.8402882 26.07563029 1.65307617 29.49975586 C1.14214399 30.9812 0.6359088 32.46427289 0.13452148 33.94897461 C-0.58797399 36.08570132 -1.32728768 38.21595626 -2.07006836 40.34570312 C-2.29003479 41.00830643 -2.51000122 41.67090973 -2.7366333 42.35359192 C-4.09914211 46.1972606 -5.2950316 48.38194657 -8.86694336 50.41992188 C-12.78934936 52.28430949 -16.82349218 53.83886302 -20.86694336 55.41992188 C-22.06319336 55.93554688 -23.25944336 56.45117188 -24.49194336 56.98242188 C-32.55086324 58.02709667 -41.46689688 51.75009371 -48.49194336 48.16992188 C-49.40073242 47.71101563 -50.30952148 47.25210938 -51.24584961 46.77929688 C-53.45478749 45.66320195 -55.66174635 44.54338469 -57.86694336 43.41992188 C-62.67387984 47.46618622 -67.3497771 51.61445586 -71.86694336 55.98242188 C-72.76219727 56.8090332 -72.76219727 56.8090332 -73.67553711 57.65234375 C-75.59856929 59.45666736 -75.59856929 59.45666736 -77.86694336 62.41992188 C-77.57367317 66.3895876 -75.98561273 69.46410376 -74.14428711 72.94726562 C-73.60610352 73.98689453 -73.06791992 75.02652344 -72.51342773 76.09765625 C-71.3748664 78.26938067 -70.23163816 80.43866483 -69.08374023 82.60546875 C-68.5468457 83.64638672 -68.00995117 84.68730469 -67.45678711 85.75976562 C-66.96041748 86.70198975 -66.46404785 87.64421387 -65.95263672 88.61499023 C-64.35038712 92.75446531 -64.35852972 96.0072152 -65.85522461 100.16601562 C-66.2922168 101.05417969 -66.72920898 101.94234375 -67.17944336 102.85742188 C-68.71495621 106.01877186 -70.15564085 109.12209828 -71.36694336 112.41992188 C-73.534575 116.75518515 -76.47351391 117.88620389 -80.91308594 119.58666992 C-82.57053833 120.12868042 -82.57053833 120.12868042 -84.26147461 120.68164062 C-85.8872644 121.21857544 -85.8872644 121.21857544 -87.54589844 121.76635742 C-89.59200317 122.43018433 -89.59200317 122.43018433 -91.67944336 123.10742188 C-96.03131836 124.53054687 -100.38319336 125.95367187 -104.86694336 127.41992188 C-104.86694336 136.98992187 -104.86694336 146.55992187 -104.86694336 156.41992188 C-102.67553711 157.12117187 -100.48413086 157.82242188 -98.22631836 158.54492188 C-96.09574343 159.24951595 -93.96885373 159.96431714 -91.84204102 160.68017578 C-90.36933984 161.16978348 -88.89307396 161.64880768 -87.41333008 162.11669922 C-75.15909839 166.00339493 -75.15909839 166.00339493 -72.08886719 169.36914062 C-71.07928368 171.37826204 -70.44128653 173.25102785 -69.86694336 175.41992188 C-69.36549805 176.45117188 -68.86405273 177.48242188 -68.34741211 178.54492188 C-67.92073242 179.49367187 -67.49405273 180.44242188 -67.05444336 181.41992188 C-66.61487305 182.36867187 -66.17530273 183.31742188 -65.72241211 184.29492188 C-63.30487675 193.12610126 -67.77616152 199.66563902 -71.99194336 207.16992188 C-73.13063282 209.20020264 -74.25877774 211.23644433 -75.37475586 213.27929688 C-75.8763623 214.17100586 -76.37796875 215.06271484 -76.89477539 215.98144531 C-78.01326575 218.30065563 -78.01326575 218.30065563 -77.77490234 220.47070312 C-76.55032459 223.09964338 -74.90322554 224.7200652 -72.83178711 226.74804688 C-72.02290039 227.54726562 -71.21401367 228.34648437 -70.38061523 229.16992188 C-69.53047852 229.99492187 -68.6803418 230.81992188 -67.80444336 231.66992188 C-66.95043945 232.51039063 -66.09643555 233.35085937 -65.21655273 234.21679688 C-63.10658924 236.29139785 -60.98994628 238.35868019 -58.86694336 240.41992188 C-51.79099143 238.43913263 -45.45489684 234.68145216 -39.00952148 231.23242188 C-33.80879891 228.54496715 -29.86878178 226.51145502 -23.86694336 227.41992188 C-21.05834961 228.37304688 -21.05834961 228.37304688 -18.42944336 229.66992188 C-17.49358398 230.12496094 -16.55772461 230.58 -15.59350586 231.04882812 C-14.24385742 231.72751953 -14.24385742 231.72751953 -12.86694336 232.41992188 C-11.67198242 232.99033203 -11.67198242 232.99033203 -10.45288086 233.57226562 C-7.56832202 234.96209852 -5.14720473 236.1396605 -2.86694336 238.41992188 C1.42305664 231.15992188 5.71305664 223.89992187 10.13305664 216.41992188 C7.41230075 213.69916598 4.99605024 213.54135597 1.25805664 212.66992188 C-17.8211873 207.8396758 -32.83213229 196.42498293 -42.92211914 179.66748047 C-47.33141766 171.96238566 -50.22629432 164.14817475 -51.86694336 155.41992188 C-52.09381836 154.26492187 -52.32069336 153.10992187 -52.55444336 151.91992188 C-54.35887271 131.71031318 -49.69226582 111.75861902 -36.73022461 95.78710938 C-26.46874521 84.11445879 -14.92388337 75.8987426 0.13305664 71.41992188 C1.22553711 71.08154297 1.22553711 71.08154297 2.34008789 70.73632812 C21.95318732 65.75576872 43.10917179 70.07336326 60.27856445 80.20898438 C65.49457813 83.61491221 69.83872918 87.94300097 74.13305664 92.41992188 C74.73504883 93.02578125 75.33704102 93.63164063 75.95727539 94.25585938 C88.83151751 108.11003068 93.51166628 126.94419235 93.34790039 145.37695312 C92.56052171 165.66784832 83.39026631 183.30789764 69.13305664 197.41992188 C68.47305664 197.74992188 67.81305664 198.07992187 67.13305664 198.41992188 C67.22006836 200.17755859 67.22006836 200.17755859 67.30883789 201.97070312 C67.63621536 211.58127798 67.34330282 218.97187985 62.13305664 227.41992188 C63.28805664 227.25492188 64.44305664 227.08992187 65.63305664 226.91992188 C74.45577127 226.87810806 82.74154002 233.0010062 90.24633789 237.13476562 C91.11645508 237.60011719 91.98657227 238.06546875 92.88305664 238.54492188 C93.62040039 238.96 94.35774414 239.37507812 95.11743164 239.80273438 C97.12504517 240.64530684 97.12504517 240.64530684 99 239.69213867 C103.2040261 237.18473567 106.47986823 233.52739634 109.94555664 230.10742188 C110.74670898 229.34751953 111.54786133 228.58761719 112.37329102 227.8046875 C113.12545898 227.06283203 113.87762695 226.32097656 114.65258789 225.55664062 C115.34457275 224.88334717 116.03655762 224.21005371 116.74951172 223.51635742 C118.37408038 221.50179799 118.37408038 221.50179799 118.02294922 219.00463867 C117.03572744 216.1372266 115.81465446 213.59803154 114.37524414 210.92773438 C113.83254883 209.89261719 113.28985352 208.8575 112.73071289 207.79101562 C111.5837829 205.62979381 110.42753562 203.47349047 109.26196289 201.32226562 C105.14774773 193.41786657 105.14774773 193.41786657 105.07836914 188.70507812 C105.42641602 187.62097656 105.77446289 186.536875 106.13305664 185.41992188 C106.33656738 184.74026367 106.54007813 184.06060547 106.74975586 183.36035156 C107.46035582 181.11136503 108.2798995 178.9309422 109.13305664 176.73242188 C109.38700195 175.98669922 109.64094727 175.24097656 109.90258789 174.47265625 C111.5335566 170.29841899 112.99891242 168.0658225 117.12915039 166.16601562 C118.7862799 165.55380494 120.45560236 164.9740223 122.13305664 164.41992188 C123.56029053 163.9013562 123.56029053 163.9013562 125.01635742 163.37231445 C128.06570892 162.27117341 131.12673468 161.21562401 134.19555664 160.16992188 C137.80493164 158.93242187 141.41430664 157.69492188 145.13305664 156.41992188 C145.13305664 146.84992188 145.13305664 137.27992188 145.13305664 127.41992188 C143.00223633 126.74445313 140.87141602 126.06898437 138.67602539 125.37304688 C136.60975971 124.70770443 134.54506799 124.03768056 132.48046875 123.3671875 C131.04747678 122.90458717 129.6129047 122.44685154 128.17675781 121.99414062 C126.10963754 121.34159175 124.04887878 120.67161279 121.98852539 119.99804688 C120.12683716 119.4010498 120.12683716 119.4010498 118.22753906 118.79199219 C112.31462923 116.17025229 110.75594372 110.75645553 108.38305664 105.10742188 C107.88999023 104.00624023 107.88999023 104.00624023 107.38696289 102.8828125 C105.31443733 97.95509877 104.5870052 94.71431387 106.13305664 89.41992188 C108.52246611 84.14519666 111.27867087 79.06740081 114.00415039 73.9609375 C114.54426758 72.92259766 115.08438477 71.88425781 115.64086914 70.81445312 C116.14247559 69.87448486 116.64408203 68.9345166 117.16088867 67.96606445 C118.27625188 65.55160732 118.27625188 65.55160732 118.04101562 63.35327148 C116.81233377 60.73699518 115.16235588 59.11294211 113.09790039 57.09179688 C112.28901367 56.29257812 111.48012695 55.49335937 110.64672852 54.66992188 C109.7965918 53.84492187 108.94645508 53.01992188 108.07055664 52.16992188 C107.21655273 51.32945313 106.36254883 50.48898438 105.48266602 49.62304688 C103.37270252 47.5484459 101.25605956 45.48116356 99.13305664 43.41992188 C96.13235584 44.83510746 93.13262898 46.25234621 90.13305664 47.66992188 C88.87428711 48.26353516 88.87428711 48.26353516 87.59008789 48.86914062 C86.75864258 49.26230469 85.92719727 49.65546875 85.07055664 50.06054688 C84.24040039 50.45306641 83.41024414 50.84558594 82.55493164 51.25 C79.67563705 52.64088505 76.84140938 54.11010043 74.01977539 55.61425781 C69.6731153 57.47036266 66.76793256 57.65358013 62.37524414 55.90820312 C61.50254883 55.56208984 60.62985352 55.21597656 59.73071289 54.859375 C58.83223633 54.48748047 57.93375977 54.11558594 57.00805664 53.73242188 C55.64874023 53.20358398 55.64874023 53.20358398 54.26196289 52.6640625 C46.61493161 49.56559871 46.61493161 49.56559871 44.13305664 45.41992188 C43.31697656 43.28658397 42.5824623 41.1212378 41.90649414 38.93945312 C41.51461914 37.69357422 41.12274414 36.44769531 40.71899414 35.1640625 C40.31488593 33.85365813 39.91124554 32.5431094 39.50805664 31.23242188 C38.70749648 28.65427723 37.90142128 26.07796654 37.09399414 23.50195312 C36.56491455 21.78842651 36.56491455 21.78842651 36.02514648 20.0402832 C35.38331255 17.52301388 35.38331255 17.52301388 34.13305664 16.41992188 C32.06043588 16.33225075 29.9848537 16.31296314 27.91040039 16.32226562 C26.0203125 16.32709961 26.0203125 16.32709961 24.09204102 16.33203125 C22.75154555 16.34038784 21.41105076 16.3488528 20.07055664 16.35742188 C18.72615722 16.36243527 17.38175604 16.36699846 16.03735352 16.37109375 C12.73587724 16.382927 9.43448861 16.39941217 6.13305664 16.41992188 Z M-20.86694336 102.41992188 C-32.12859486 116.31000437 -38.28682898 130.96427786 -36.49975586 149.15820312 C-33.77211881 165.37249004 -25.98493395 178.51702809 -13.10131836 188.58007812 C-4.08020974 194.6499955 6.67557995 199.019075 17.67211914 198.97070312 C20.79965432 198.27073097 21.56474843 197.26269469 23.38305664 194.66992188 C23.84325195 193.9403125 24.30344727 193.21070313 24.77758789 192.45898438 C28.14076205 187.39968492 33.41452939 185.60306544 39.13305664 184.41992188 C43.94278119 184.10961707 47.06080977 184.39028515 51.57055664 185.98242188 C53.8204819 186.64288476 53.8204819 186.64288476 56.13305664 186.41992188 C67.58385075 179.04515547 74.08174559 163.571925 76.94555664 150.79492188 C77.03836914 149.12429687 77.03836914 149.12429687 77.13305664 147.41992188 C77.22586914 146.28103516 77.22586914 146.28103516 77.32055664 145.11914062 C78.07847794 129.13173813 72.03366319 115.18283038 61.88305664 103.10742188 C51.02230594 91.6197348 36.15465515 85.57233531 20.50805664 85.04492188 C5.25204716 85.32439619 -10.34041573 91.02240497 -20.86694336 102.41992188 Z M36.81958008 203.52612305 C32.98864851 207.82787987 30.45333527 213.08264226 27.69555664 218.10742188 C26.99320945 219.36517397 26.28949088 220.62216114 25.58447266 221.87841797 C24.13561376 224.46158128 22.6918019 227.04746617 21.2512207 229.63525391 C18.08593254 235.30722109 14.82702104 240.92497096 11.57055664 246.54492188 C10.32944075 248.69322624 9.08855546 250.84166385 7.84790039 252.99023438 C7.23543457 254.05016602 6.62296875 255.11009766 5.99194336 256.20214844 C3.49541593 260.52369185 1.0014871 264.84673182 -1.4921875 269.16992188 C-2.73460099 271.32371903 -3.97727364 273.47736672 -5.22021484 275.63085938 C-8.12880919 280.67053711 -11.03555286 285.71125426 -13.93548584 290.75592041 C-14.95970001 292.53741766 -15.98451987 294.31856509 -17.00952148 296.09960938 C-18.29327711 298.33068812 -19.57590275 300.56241761 -20.85717773 302.79492188 C-23.42890707 307.26205836 -26.01641836 311.69607583 -28.79663086 316.03710938 C-31.04094591 319.04322585 -31.04094591 319.04322585 -30.86694336 321.41992188 C-37.88966712 322.72924325 -37.88966712 322.72924325 -41.42163086 321.61132812 C-45.33884608 318.10085251 -46.00498806 313.6501925 -47.30444336 308.66992188 C-47.59810791 307.61111816 -47.89177246 306.55231445 -48.19433594 305.46142578 C-49.70438446 299.96834482 -51.11839813 294.45246099 -52.50756836 288.92773438 C-52.76868408 287.89745117 -53.0297998 286.86716797 -53.29882812 285.80566406 C-53.79131719 283.84334575 -54.27159376 281.87790947 -54.73779297 279.90917969 C-56.03844938 274.65363957 -57.35986562 270.60014314 -60.86694336 266.41992188 C-65.28289325 264.86616173 -67.11959427 265.07293837 -71.36694336 267.04492188 C-73.47842171 269.08570263 -73.85168984 270.08548026 -73.98681641 273.04820251 C-73.2266876 281.05344636 -72.04557417 288.93420023 -70.56942749 296.8357563 C-70.16792501 298.98550025 -69.77493051 301.13666294 -69.38378906 303.28831482 C-68.55219185 307.85438116 -67.71009994 312.41847821 -66.86694336 316.98242188 C-65.88828092 322.28432632 -64.91416281 327.58700966 -63.94906616 332.89140129 C-63.56555997 334.98805295 -63.1751047 337.08332519 -62.78417969 339.17860413 C-58.93219726 360.28845996 -58.93219726 360.28845996 -60.74194336 368.41992188 C-60.92499023 369.28617188 -61.10803711 370.15242187 -61.29663086 371.04492188 C-61.80770662 373.17323739 -62.33450256 375.29687719 -62.86694336 377.41992188 C-61.87404297 377.99154053 -61.87404297 377.99154053 -60.86108398 378.57470703 C-57.69597321 380.39742309 -54.53129709 382.22089195 -51.36694336 384.04492188 C-50.48761139 384.55178024 -50.48761139 384.55178024 -49.59051514 385.06887817 C-41.37547596 389.80542835 -33.17644385 394.56823516 -24.99194336 399.35742188 C-15.68787134 404.80040462 -6.3368778 410.15783748 3.03009033 415.49142456 C14.47194689 422.0096436 25.82357742 428.67490079 37.13305664 435.41992188 C41.10679656 431.75989826 43.85091716 427.94267659 46.50805664 423.23242188 C46.92740479 422.50466553 47.34675293 421.77690918 47.77880859 421.02709961 C48.71839102 419.39496349 49.65447641 417.76081082 50.58764648 416.125 C52.2455951 413.22293513 53.91656044 410.32865458 55.59008789 407.43554688 C58.79195381 401.8988276 61.98578098 396.35752053 65.17749023 390.81494141 C68.94563703 384.2731375 72.71979623 377.73480056 76.49365234 371.19628906 C79.69772016 365.64419249 82.89857536 360.09028267 86.09399414 354.53320312 C86.74489014 353.40245361 87.39578613 352.2717041 88.06640625 351.10668945 C89.34492863 348.8848288 90.62182685 346.66203264 91.89697266 344.43823242 C94.55627388 339.81476754 97.22973541 335.21343045 100.07446289 330.70117188 C100.5032373 330.01627686 100.93201172 329.33138184 101.3737793 328.62573242 C102.46564125 326.8983988 103.57761259 325.18381834 104.69165039 323.47070312 C106.41055115 319.8325961 106.56319613 317.39989382 106.13305664 313.41992188 C103.68706777 310.03870197 102.24009105 308.65055404 98.13305664 307.79492188 C94.22897069 308.60827312 92.53195993 310.3910118 90.13305664 313.41992188 C87.66818577 317.23001222 85.43068652 321.15925381 83.19555664 325.10742188 C81.999514 327.19498925 80.80290488 329.28223218 79.60571289 331.36914062 C79.02708496 332.38024902 78.44845703 333.39135742 77.85229492 334.43310547 C76.19032563 337.320429 74.51443942 340.19804938 72.81665039 343.06445312 C72.11173462 344.25518433 72.11173462 344.25518433 71.39257812 345.4699707 C70.13305664 347.41992188 70.13305664 347.41992188 68.13305664 349.41992188 C61.1697737 350.09378797 61.1697737 350.09378797 57.63305664 347.79492188 C55.69459808 344.72569582 55.84104611 343.01495722 56.13305664 339.41992188 C57.2277832 336.76123047 57.2277832 336.76123047 58.77368164 334.06835938 C59.34449463 333.06135986 59.91530762 332.05436035 60.50341797 331.0168457 C61.12369873 329.95361084 61.74397949 328.89037598 62.38305664 327.79492188 C63.01042725 326.69494873 63.63779785 325.59497559 64.28417969 324.46166992 C67.35179556 319.11101542 70.4874217 313.80616977 73.69946289 308.54101562 C74.24763672 307.64141113 74.79581055 306.74180664 75.3605957 305.81494141 C76.39244035 304.13366404 77.43428642 302.45847076 78.48754883 300.79052734 C81.01496615 296.70287897 82.98051531 293.35935543 83.13305664 288.41992188 C81.79348705 284.99388529 81.79348705 284.99388529 79.13305664 282.41992188 C75.73335853 281.08899028 75.73335853 281.08899028 72.13305664 281.41992188 C68.2082601 284.02945751 66.04180756 286.75098423 63.75024414 290.83007812 C63.145271 291.89419922 62.54029785 292.95832031 61.91699219 294.0546875 C60.97206909 295.75141602 60.97206909 295.75141602 60.00805664 297.48242188 C59.34744556 298.65035758 58.68573319 299.81767101 58.02294922 300.984375 C56.68952641 303.33411911 55.36098929 305.68650757 54.03686523 308.04150391 C51.32667004 312.85090134 48.57897374 317.63806994 45.82055664 322.41992188 C45.37115723 323.20761963 44.92175781 323.99531738 44.45874023 324.80688477 C44.04575684 325.52481201 43.63277344 326.24273926 43.20727539 326.98242188 C42.85238037 327.60246094 42.49748535 328.2225 42.13183594 328.86132812 C41.13305664 330.41992188 41.13305664 330.41992188 39.13305664 332.41992188 C36.09375529 332.91589895 33.17747776 332.8659909 30.13305664 332.41992188 C27.51440686 330.35674326 27.22293209 329.09045329 26.78540039 325.82617188 C27.27559747 321.02334209 29.36017764 317.67677201 31.75805664 313.54492188 C32.24153564 312.68938721 32.72501465 311.83385254 33.22314453 310.95239258 C34.84354744 308.09859064 36.48565889 305.2582208 38.13305664 302.41992188 C38.73714355 301.37594238 39.34123047 300.33196289 39.96362305 299.25634766 C42.98274287 294.04536098 46.01602758 288.8429958 49.06665039 283.65039062 C49.59572998 282.74708008 50.12480957 281.84376953 50.66992188 280.91308594 C51.57835123 279.36513324 52.49111893 277.81970739 53.41064453 276.27832031 C55.69180821 272.40719317 57.02197831 269.96329929 56.13305664 265.41992188 C53.53142233 261.79340132 52.03398945 260.59689082 47.63305664 259.73242188 C43.08101845 260.62657223 41.65868445 262.77655652 39.13305664 266.41992188 C36.69196686 270.35980193 34.41049254 274.38376168 32.13305664 278.41992188 C31.1429162 280.15386435 30.15276118 281.88779894 29.16130066 283.62098694 C28.48733469 284.7994461 27.81400764 285.97827088 27.14131165 287.15745544 C23.73879266 293.1212347 20.29371188 299.05948705 16.82055664 304.98242188 C16.00361328 306.39104492 16.00361328 306.39104492 15.17016602 307.828125 C14.66678711 308.68470703 14.1634082 309.54128906 13.64477539 310.42382812 C13.20609131 311.1747876 12.76740723 311.92574707 12.31542969 312.69946289 C11.13305664 314.41992188 11.13305664 314.41992188 9.13305664 315.41992188 C7.42602929 315.48988201 5.71637661 315.50432341 4.00805664 315.48242188 C2.64293945 315.46888672 2.64293945 315.46888672 1.25024414 315.45507812 C0.20223633 315.43767578 0.20223633 315.43767578 -0.86694336 315.41992188 C-2.59893045 310.22396062 -2.80498663 306.5382228 -0.58862305 301.53320312 C1.27633097 298.10868 3.24407693 294.75771596 5.25805664 291.41992188 C5.99334918 290.17235771 6.72696853 288.92380601 7.45898438 287.67431641 C8.95219473 285.13127194 10.45456048 282.59402799 11.96557617 280.06152344 C14.51055186 275.79366332 17.008567 271.4989598 19.50512695 267.20263672 C21.2028018 264.28245946 22.9075372 261.36649887 24.61352539 258.45117188 C29.07958033 250.80877891 33.51090386 243.14625371 37.91674805 235.46899414 C40.52388866 230.9264171 43.13212026 226.3899732 45.85571289 221.91601562 C46.23937012 221.27680176 46.62302734 220.63758789 47.01831055 219.97900391 C47.9715456 218.39676642 48.94010688 216.82378741 49.91040039 215.25195312 C51.41552134 211.7656506 51.46846479 209.1809652 51.13305664 205.41992188 C49.11085398 202.46439491 47.60709525 201.59511006 44.25805664 200.35742188 C40.74557246 200.42767156 39.41410763 201.23930551 36.81958008 203.52612305 Z M-38.99194336 249.23242188 C-39.85303711 249.72291016 -40.71413086 250.21339844 -41.60131836 250.71875 C-43.70845747 251.92450182 -45.79361191 253.15721385 -47.86694336 254.41992188 C-46.62793912 256.93086071 -45.33659686 259.37542217 -43.97631836 261.82617188 C-41.10720454 267.56439951 -39.70135832 273.73186345 -38.11694336 279.91992188 C-37.80112305 281.12390625 -37.48530273 282.32789063 -37.15991211 283.56835938 C-36.38767108 286.51691605 -35.62359213 289.4673329 -34.86694336 292.41992188 C-31.9981683 288.98960935 -29.66429924 285.54022648 -27.48413086 281.63867188 C-26.8744043 280.54941406 -26.26467773 279.46015625 -25.63647461 278.33789062 C-24.69868164 276.64599609 -24.69868164 276.64599609 -23.74194336 274.91992188 C-23.10901367 273.79199219 -22.47608398 272.6640625 -21.82397461 271.50195312 C-16.74639959 263.63851715 -16.74639959 263.63851715 -15.19506836 254.84960938 C-15.49928711 254.0065625 -15.80350586 253.16351563 -16.11694336 252.29492188 C-16.52686523 251.02261719 -16.52686523 251.02261719 -16.94506836 249.72460938 C-19.59065734 246.55205348 -22.14268399 245.64150599 -26.09936523 244.6171875 C-31.16359434 244.25622269 -34.78294257 246.6628203 -38.99194336 249.23242188 Z M-89.86694336 381.41992188 C-92.68671597 385.65326196 -95.25117306 390.05790648 -97.86694336 394.41992188 C-98.31440918 395.16306641 -98.761875 395.90621094 -99.22290039 396.671875 C-100.61015548 398.98025196 -101.98982525 401.29298534 -103.36694336 403.60742188 C-103.81223389 404.34984131 -104.25752441 405.09226074 -104.71630859 405.85717773 C-107.03857878 409.39584662 -107.03857878 409.39584662 -107.86694336 413.41992188 C-107.2154834 413.79576416 -106.56402344 414.17160645 -105.89282227 414.55883789 C-23.36694336 462.16992187 -23.36694336 462.16992187 -20.11254883 464.04760742 C-17.96070422 465.28895662 -15.80868788 466.53000817 -13.65649414 467.77075195 C-8.61142274 470.67972191 -3.56805915 473.59152711 1.46905518 476.51425171 C3.24985665 477.54735127 5.03121522 478.57948359 6.81274414 479.61132812 C9.04562747 480.90498275 11.27746574 482.20044352 13.50805664 483.49804688 C18.97188069 486.66094756 24.44816732 489.67290701 30.13305664 492.41992188 C34.70940875 485.06963566 39.21087748 477.6765028 43.63305664 470.23242188 C44.0782666 469.49000244 44.52347656 468.74758301 44.98217773 467.98266602 C47.30469372 464.44407187 47.30469372 464.44407187 48.13305664 460.41992188 C47.13060913 459.86232178 47.13060913 459.86232178 46.10791016 459.29345703 C23.52356544 446.71969044 23.52356544 446.71969044 12.71899414 440.30981445 C6.40634187 436.56767778 0.05401898 432.89610509 -6.30444336 429.23242188 C-7.41166748 428.5944165 -8.5188916 427.95641113 -9.65966797 427.29907227 C-11.93031403 425.99102711 -14.20106694 424.6831674 -16.47192383 423.37548828 C-23.01514454 419.60652539 -29.5547457 415.83128688 -36.0949707 412.05712891 C-41.62318252 408.86729481 -47.15236861 405.67917107 -52.68334961 402.49414062 C-54.93210946 401.19867522 -57.18080826 399.90310381 -59.42944336 398.60742188 C-60.50701904 397.98665771 -61.58459473 397.36589355 -62.69482422 396.72631836 C-69.84428916 392.60215614 -76.97117255 388.44169255 -84.05859375 384.21166992 C-86.78963273 382.27669197 -86.78963273 382.27669197 -89.86694336 381.41992188 Z " fill="#3C84E2" transform="translate(127.866943359375,-0.419921875)"/>
<path d="M0 0 C5.29482832 4.14055574 8.70461066 10.05133198 10.8125 16.375 C11.84265934 26.66224939 12.11294231 36.74234977 5.8125 45.375 C5.42835938 45.9525 5.04421875 46.53 4.6484375 47.125 C-0.11434054 53.60497012 -7.5823648 57.30930702 -15.32421875 58.78125 C-20.67256554 59.53914777 -24.36543802 59.05004229 -29.5625 57.5625 C-33.86866823 56.78186243 -33.86866823 56.78186243 -37.75976562 58.44042969 C-41.20690654 61.71017643 -43.95744816 65.53075972 -46.72021484 69.37939453 C-49.02707182 72.51687355 -51.57781447 75.43223213 -54.125 78.375 C-55.81812382 80.37031111 -57.50228973 82.37298085 -59.1875 84.375 C-59.67049561 84.89046387 -60.15349121 85.40592773 -60.65112305 85.93701172 C-62.26443624 87.64970254 -62.26443624 87.64970254 -64.1875 90.375 C-64.22807478 92.55609067 -64.22807478 92.55609067 -63.125 94.5 C-58.94983262 104.69835967 -58.08428949 114.41009302 -62.125 124.78125 C-66.288473 133.22384803 -73.49001731 139.65413645 -82.390625 142.75 C-91.92440917 144.88045456 -101.57771017 144.08451524 -110.1875 139.375 C-116.96772275 134.68913623 -122.91237615 128.73005276 -124.58105469 120.41357422 C-125.33078648 115.75242659 -125.80081481 111.07870787 -126.1875 106.375 C-127.7622294 105.64773948 -129.34774279 104.94379578 -130.9375 104.25 C-131.81921875 103.85554688 -132.7009375 103.46109375 -133.609375 103.0546875 C-136.12592256 102.14106028 -136.12592256 102.14106028 -138.3125 103.07421875 C-140.18385034 104.37246805 -141.7903981 105.74135668 -143.4375 107.3125 C-151.38429061 114.11215975 -160.20553935 114.24280346 -170.24365234 113.62158203 C-173.67134119 113.18677096 -176.43592564 111.88322676 -179.328125 110.0546875 C-181.26011705 109.15032093 -181.26011705 109.15032093 -183.6171875 109.9921875 C-187.53840654 112.1017795 -190.44646528 115.04226446 -193.6640625 118.0859375 C-195.84277632 120.062294 -198.01164477 121.61039034 -200.4375 123.25 C-202.17790742 124.57793194 -202.17790742 124.57793194 -203.1875 126.375 C-203.122943 129.19706308 -202.52445923 131.65114048 -201.8359375 134.38671875 C-199.92966936 143.17162916 -202.14897019 150.9386031 -206.38671875 158.67578125 C-211.10289714 165.74493368 -218.29834887 170.95741758 -226.60546875 172.95703125 C-236.93940299 174.62984663 -246.12135744 172.80738804 -255 167.1875 C-260.97279223 162.51812286 -265.67909617 154.80574347 -267.1875 147.375 C-268.35367344 136.78873663 -266.91167218 127.67040461 -260.42578125 119.02734375 C-254.09044265 112.15228056 -246.18169418 108.10306458 -236.8984375 107.13671875 C-229.94970188 106.91593952 -224.55564044 108.73661902 -218.1875 111.375 C-217.1975 111.705 -216.2075 112.035 -215.1875 112.375 C-212.77768777 110.57287955 -210.59574401 108.76378462 -208.375 106.75 C-207.16045141 105.67414586 -205.94561026 104.59862191 -204.73046875 103.5234375 C-204.14313965 102.9881543 -203.55581055 102.45287109 -202.95068359 101.90136719 C-201.1875 100.375 -201.1875 100.375 -199.36572266 99.10644531 C-197.43292298 97.81866745 -197.43292298 97.81866745 -195.1875 95.375 C-195.17924529 91.93778166 -195.17924529 91.93778166 -196.1875 88.375 C-196.94012014 76.96231751 -196.29116364 68.1157518 -188.9375 59.0625 C-183.37593424 53.15482821 -176.47183703 48.74493272 -168.296875 48.0390625 C-156.54785898 47.79342444 -148.77723133 49.24210706 -139.97265625 57.5390625 C-133.9568113 63.72603652 -131.45726769 69.75455877 -130.1875 78.375 C-130.23438673 80.9154084 -130.56806894 82.89727575 -131.1875 85.375 C-129.77148286 85.85608275 -128.35465563 86.33478141 -126.9375 86.8125 C-126.14859375 87.07933594 -125.3596875 87.34617187 -124.546875 87.62109375 C-123.76828125 87.86988281 -122.9896875 88.11867188 -122.1875 88.375 C-121.4759375 88.61605469 -120.764375 88.85710937 -120.03125 89.10546875 C-119.11859375 89.23888672 -119.11859375 89.23888672 -118.1875 89.375 C-116.47391357 87.75661281 -114.8167274 86.07828319 -113.1875 84.375 C-105.50861065 78.54564959 -97.75189971 76.56100854 -88.1875 77.375 C-84.82326391 77.92080613 -81.50579502 78.59911473 -78.1875 79.375 C-68.5849763 68.25159687 -68.5849763 68.25159687 -59.2421875 56.91015625 C-57.86075487 55.205689 -56.44835254 53.52590767 -55.0078125 51.87109375 C-54.34523438 51.08863281 -53.68265625 50.30617188 -53 49.5 C-52.11248047 48.48292969 -52.11248047 48.48292969 -51.20703125 47.4453125 C-49.89635393 45.37276049 -49.89635393 45.37276049 -50.88671875 42.9921875 C-51.53060547 41.69667969 -51.53060547 41.69667969 -52.1875 40.375 C-55.44708365 32.1104528 -56.02453933 20.65815019 -52.625 12.3125 C-48.35006102 4.53030474 -41.88748548 -2.52328369 -33.46484375 -5.62890625 C-20.91950373 -9.23872667 -10.72226185 -7.16848188 0 0 Z M-35.625 16.9375 C-37.84205898 21.81502975 -37.95758689 26.10226223 -37.1875 31.375 C-34.87435081 36.26820022 -31.92511056 38.8166903 -27.1875 41.375 C-22.45703125 42.95182292 -18.86889818 42.12983896 -14.30859375 40.46875 C-10.37485447 38.44030249 -8.15688289 35.31376578 -6.1875 31.375 C-5.56745064 26.03371767 -5.23326069 20.9839896 -8.3125 16.375 C-11.40982597 12.76722087 -14.53855142 10.76241478 -19.32421875 10.0625 C-26.43203309 9.67633691 -30.67757228 11.73635804 -35.625 16.9375 Z M-176.50390625 70.8828125 C-179.54841153 75.4442664 -180.11720367 80.01497372 -179.1875 85.375 C-177.33743598 90.66535161 -174.12789242 93.80599594 -169.1875 96.375 C-164.45801757 97.95149414 -160.85251926 97.14875723 -156.3046875 95.44140625 C-152.18946769 93.36861103 -150.03867909 90.49314151 -148.33984375 86.265625 C-146.94737682 81.42951229 -147.0051644 77.78127864 -149.05859375 73.16796875 C-151.3047345 69.60056873 -154.42244777 67.25752611 -158.1875 65.375 C-165.49920658 64.55961773 -171.41034381 65.04864305 -176.50390625 70.8828125 Z M-105.625 101 C-108.75009531 105.75014487 -108.77544943 109.77268188 -108.1875 115.375 C-106.90336382 119.48268861 -104.57222522 122.42824735 -101 124.8125 C-96.7811287 126.88587692 -92.78839548 127.29044404 -88.1875 126.375 C-84.17938767 124.67416625 -81.16101607 122.40936082 -78.1875 119.25 C-76.15009969 113.3924741 -76.16041394 107.54768206 -78.8125 101.9375 C-82.97636203 97.44491203 -86.95332527 94.70562325 -93.1015625 94.2109375 C-98.31839706 94.62125033 -102.14860628 97.25619137 -105.625 101 Z M-247.625 131 C-250.73685337 135.73001712 -250.80585077 139.79266664 -250.1875 145.375 C-247.97507561 149.79984878 -245.23950384 152.56976657 -241.1875 155.375 C-236.11211603 157.06679466 -231.86785564 156.93871867 -227 154.75 C-223.15647716 152.62712401 -221.14683625 150.37204594 -219.1875 146.375 C-217.82719416 141.47789896 -218.07170445 137.89591853 -220.0546875 133.3046875 C-222.52812607 129.09131283 -225.70285191 126.20916372 -230.36328125 124.64453125 C-237.50169303 123.39931607 -242.77709559 125.77917986 -247.625 131 Z " fill="#7551F3" transform="translate(501.1875,244.625)"/>
<path d="M0 0 C1.4565011 1.21652785 2.89179726 2.45831287 4.32568359 3.70141602 C5.06044922 4.3240332 5.79521484 4.94665039 6.55224609 5.58813477 C17.10579929 15.27974437 23.88163122 28.266591 28.32568359 41.70141602 C28.66470703 42.67594727 29.00373047 43.65047852 29.35302734 44.65454102 C34.021045 60.74521939 32.84579615 79.98634559 27.32568359 95.70141602 C26.91318359 96.88606445 26.50068359 98.07071289 26.07568359 99.29125977 C17.68302172 120.86898419 1.42032696 135.77745611 -18.92431641 146.01391602 C-40.20216649 155.23945729 -63.62278348 155.21499696 -85.29931641 147.45141602 C-106.32001974 138.83929756 -124.0123053 122.35735464 -133.11181641 101.38891602 C-142.23709032 77.4893891 -141.71326251 52.94467269 -131.50683594 29.4909668 C-127.40733426 20.67884149 -121.33375792 13.67283136 -114.67431641 6.70141602 C-114.13419922 6.0865332 -113.59408203 5.47165039 -113.03759766 4.83813477 C-84.56528336 -26.35948921 -31.47351506 -25.35710794 0 0 Z M-107.72900391 24.09985352 C-119.36472302 39.66087546 -124.91138231 57.7777343 -122.17822266 77.23266602 C-118.69925309 95.00096254 -109.99223416 111.73096293 -95.11572266 122.56469727 C-78.71012906 133.43194863 -60.28494705 138.69676759 -40.68212891 135.04516602 C-21.23588554 130.35542749 -5.35130317 119.71256755 5.32568359 102.70141602 C14.56890363 85.93794459 17.25590533 67.38881463 12.76318359 48.70141602 C6.72296445 29.30913351 -5.80079735 14.90333518 -23.48681641 5.32641602 C-53.23870109 -8.41723675 -86.39575508 -1.03365016 -107.72900391 24.09985352 Z " fill="#784FF4" transform="translate(442.67431640625,106.298583984375)"/>
<path d="M0 0 C0.96457626 -0.00637985 1.92915253 -0.0127597 2.92295837 -0.01933289 C3.95844315 -0.02044571 4.99392792 -0.02155853 6.06079102 -0.02270508 C7.13087906 -0.02603348 8.2009671 -0.02936188 9.30348206 -0.03279114 C11.56543549 -0.03785121 13.82739638 -0.04019975 16.08935547 -0.04003906 C19.54805803 -0.04222581 23.00644174 -0.06039219 26.46508789 -0.0793457 C28.66365451 -0.08227976 30.86222264 -0.08426447 33.06079102 -0.08520508 C34.09425156 -0.09239059 35.1277121 -0.09957611 36.19248962 -0.10697937 C37.16021805 -0.10390274 38.12794647 -0.10082611 39.125 -0.09765625 C40.39596779 -0.09979378 40.39596779 -0.09979378 41.69261169 -0.10197449 C45.17572859 0.25174461 47.87974791 1.27551307 50.75139618 3.27769279 C52.8744454 6.15961006 52.50824309 8.6567609 52.51487732 12.19871521 C52.52026286 12.92124499 52.52564839 13.64377477 52.53119713 14.38819939 C52.54553535 16.81577489 52.5383588 19.24280959 52.53125 21.67041016 C52.53695053 23.40818726 52.54391355 25.14596061 52.55204773 26.88372803 C52.57002963 31.60892861 52.56880131 36.33394401 52.56310534 41.05916858 C52.56002067 45.00068636 52.56609791 48.9421682 52.57214409 52.88368088 C52.5862043 62.18062219 52.58461567 71.47747165 52.57324219 80.77441406 C52.56175977 90.37262757 52.57583532 99.97056171 52.60263866 109.5687384 C52.6247747 117.8032082 52.63143777 126.03759018 52.62556225 134.27208763 C52.6221864 139.1929134 52.62464925 144.11356007 52.64181328 149.03436089 C52.65724696 153.66127023 52.65336684 158.28776484 52.63450813 162.91465759 C52.63081227 164.61422711 52.63395966 166.3138271 52.64439392 168.01336861 C52.65753814 170.33100413 52.64611651 172.64725332 52.62840271 174.96482849 C52.62808878 176.91134135 52.62808878 176.91134135 52.62776852 178.8971777 C52.0427616 182.6931463 51.17557687 183.88222171 48.12719727 186.14526367 C45.50915527 186.65319824 45.50915527 186.65319824 42.50415039 186.6628418 C41.37618042 186.67545044 40.24821045 186.68805908 39.08605957 186.7010498 C37.87244751 186.69295288 36.65883545 186.68485596 35.40844727 186.67651367 C34.15841919 186.68034058 32.90839111 186.68416748 31.6204834 186.68811035 C28.97713821 186.69083281 26.33527241 186.6854632 23.69213867 186.66674805 C20.30902236 186.64395721 16.9271753 186.6570835 13.54410553 186.6810379 C10.31134093 186.69899051 7.07872844 186.68641068 3.84594727 186.67651367 C2.63233521 186.6846106 1.41872314 186.69270752 0.16833496 186.7010498 C-0.95963501 186.68844116 -2.08760498 186.67583252 -3.24975586 186.6628418 C-4.24140747 186.65965942 -5.23305908 186.65647705 -6.25476074 186.65319824 C-9.71928407 185.98103516 -10.72159427 184.9280818 -12.87280273 182.14526367 C-13.3761673 178.89997101 -13.3761673 178.89997101 -13.3807373 174.97155762 C-13.39009725 173.88648131 -13.39009725 173.88648131 -13.39964628 172.77948427 C-13.41560487 170.35485549 -13.40296161 167.93122808 -13.39038086 165.5065918 C-13.39580073 163.7686657 -13.40292263 162.0307442 -13.41162109 160.29283142 C-13.42987347 155.57176155 -13.42277905 150.85104089 -13.41010475 146.12996483 C-13.39998699 141.19238713 -13.40936702 136.2548396 -13.41564941 131.31726074 C-13.42292939 123.02501042 -13.41332893 114.73290253 -13.39428711 106.44067383 C-13.3725177 96.84981321 -13.37956883 87.25929271 -13.40159273 77.66844034 C-13.41973675 69.43818704 -13.42230994 61.20803621 -13.41183805 52.97776937 C-13.40559763 48.06032326 -13.40478256 43.14303708 -13.41798401 38.2256012 C-13.42952737 33.60276407 -13.42154459 28.980366 -13.39840698 24.35757637 C-13.39311177 22.65962516 -13.39464753 20.96163709 -13.40345764 19.26370049 C-13.41436522 16.94828915 -13.40070942 14.63429066 -13.3807373 12.31896973 C-13.3792292 11.02259331 -13.3777211 9.72621689 -13.3761673 8.39055634 C-12.78866822 4.60283151 -11.87581237 3.44144484 -8.87280273 1.14526367 C-5.93688887 0.02712623 -3.12280253 0.01406174 0 0 Z M4.12719727 17.14526367 C4.12719727 67.63526367 4.12719727 118.12526367 4.12719727 170.14526367 C14.35719727 170.14526367 24.58719727 170.14526367 35.12719727 170.14526367 C35.12719727 119.65526367 35.12719727 69.16526367 35.12719727 17.14526367 C24.89719727 17.14526367 14.66719727 17.14526367 4.12719727 17.14526367 Z " fill="#8E3BFA" transform="translate(459.872802734375,325.854736328125)"/>
<path d="M0 0 C1.04481033 -0.00960754 2.08962067 -0.01921509 3.16609192 -0.02911377 C4.29939438 -0.03336365 5.43269684 -0.03761353 6.6003418 -0.04199219 C8.34289497 -0.0505423 8.34289497 -0.0505423 10.12065125 -0.05926514 C12.58286627 -0.06872515 15.04509402 -0.07525308 17.50732422 -0.07910156 C21.27358127 -0.08880029 25.0392912 -0.11981227 28.80541992 -0.15136719 C31.19539063 -0.15789774 33.58536526 -0.163148 35.9753418 -0.16699219 C37.10257156 -0.17933899 38.22980133 -0.19168579 39.39118958 -0.20440674 C40.9725898 -0.19990509 40.9725898 -0.19990509 42.5859375 -0.1953125 C43.97254326 -0.20078094 43.97254326 -0.20078094 45.38716125 -0.20635986 C48.53517949 0.23860877 50.42166815 1.31315934 52.98706055 3.16113281 C54.24156318 5.67013808 54.12131787 7.38734465 54.13423157 10.19613647 C54.14138687 11.26170273 54.14854218 12.32726898 54.15591431 13.42512512 C54.15860321 14.59919418 54.16129211 15.77326324 54.1640625 16.98291016 C54.1706337 18.2154805 54.1772049 19.44805084 54.18397522 20.7179718 C54.20033035 24.10439018 54.21193699 27.49074604 54.22018075 30.87718916 C54.22532997 32.9922113 54.23140569 35.10722904 54.23769188 37.22224808 C54.25674316 43.83771256 54.27097519 50.45316587 54.27930385 57.06865251 C54.28908125 64.70897148 54.31541378 72.34900112 54.35580474 79.98921812 C54.38594385 85.89245934 54.40077055 91.79561751 54.40408486 97.6989342 C54.40643763 101.22590695 54.41542693 104.75257058 54.44054604 108.27946091 C54.46811078 112.2132575 54.46400235 116.14667183 54.45703125 120.08056641 C54.46984131 121.25058701 54.48265137 122.4206076 54.49584961 123.62608337 C54.48890579 124.69728928 54.48196198 125.76849518 54.47480774 126.87216187 C54.47719609 127.80241873 54.47958445 128.73267559 54.48204517 129.69112206 C53.83283108 132.93074952 52.53707229 134.12699169 49.98706055 136.16113281 C47.36901855 136.67579651 47.36901855 136.67579651 44.36401367 136.69458008 C42.67205872 136.71833458 42.67205872 136.71833458 40.94592285 136.74256897 C39.73231079 136.7376091 38.51869873 136.73264923 37.26831055 136.72753906 C36.01828247 136.73373764 34.76825439 136.73993622 33.48034668 136.74632263 C30.83699711 136.75342786 28.19516821 136.75217866 25.55200195 136.73754883 C22.16869543 136.72035299 18.78708598 136.7438657 15.40396881 136.77903843 C12.17122892 136.8063049 8.93863301 136.79627686 5.70581055 136.79003906 C4.49219849 136.80329727 3.27858643 136.81655548 2.02819824 136.83021545 C0.90022827 136.81768234 -0.2277417 136.80514923 -1.38989258 136.79223633 C-2.38154419 136.79127457 -3.3731958 136.79031281 -4.39489746 136.7893219 C-7.01293945 136.16113281 -7.01293945 136.16113281 -9.33203125 134.37609863 C-11.93520453 129.39717526 -11.56937745 124.62868837 -11.53051758 119.09057617 C-11.53752686 117.86732132 -11.54453613 116.64406647 -11.55175781 115.38374329 C-11.56633156 112.03642119 -11.56293815 108.69008999 -11.55024147 105.34282374 C-11.5400995 101.83730556 -11.54951025 98.33182909 -11.55578613 94.8263092 C-11.56305813 88.94101374 -11.55348575 83.05591924 -11.53442383 77.1706543 C-11.51264559 70.36822005 -11.51971475 63.5662652 -11.54172945 56.76384252 C-11.55988431 50.91994911 -11.56244174 45.07619996 -11.55197477 39.23228747 C-11.54574152 35.74341603 -11.54489951 32.25476993 -11.55812073 28.76591301 C-11.57182641 24.87785083 -11.55282804 20.99032537 -11.53051758 17.10229492 C-11.5386145 15.9463382 -11.54671143 14.79038147 -11.55505371 13.59939575 C-11.54377441 12.54093948 -11.53249512 11.48248322 -11.52087402 10.39195251 C-11.51936592 9.47296645 -11.51785782 8.55398039 -11.51630402 7.60714626 C-10.85729557 4.40480816 -9.49405107 3.21828978 -7.01293945 1.16113281 C-4.51380354 -0.08843514 -2.7965377 0.02070978 0 0 Z M5.98706055 17.16113281 C5.98706055 51.15113281 5.98706055 85.14113281 5.98706055 120.16113281 C16.21706055 120.16113281 26.44706055 120.16113281 36.98706055 120.16113281 C36.98706055 86.17113281 36.98706055 52.18113281 36.98706055 17.16113281 C26.75706055 17.16113281 16.52706055 17.16113281 5.98706055 17.16113281 Z " fill="#6C5AF0" transform="translate(316.012939453125,375.8388671875)"/>
<path d="M0 0 C1.62693787 -0.0236412 1.62693787 -0.0236412 3.28674316 -0.04776001 C4.44830933 -0.03763885 5.60987549 -0.0275177 6.80664062 -0.01708984 C8.00848999 -0.02187347 9.21033936 -0.0266571 10.4486084 -0.03158569 C12.98707388 -0.03498487 15.52558312 -0.02578146 18.06396484 -0.00488281 C21.94923525 0.0218786 25.83161632 -0.00463417 29.71679688 -0.03662109 C32.18425117 -0.033317 34.65170366 -0.0269108 37.11914062 -0.01708984 C38.86148987 -0.03227158 38.86148987 -0.03227158 40.63903809 -0.04776001 C41.72366333 -0.03199921 42.80828857 -0.0162384 43.92578125 0 C44.87666626 0.00397797 45.82755127 0.00795593 46.80725098 0.01205444 C50.7412776 0.95261321 52.11859676 2.35902488 54.46289062 5.64697266 C55.17811659 8.94052148 55.13625692 12.15456823 55.09399414 15.5144043 C55.10114944 16.50357346 55.10830475 17.49274261 55.11567688 18.5118866 C55.13256849 21.77743891 55.11315907 25.04161946 55.09179688 28.30712891 C55.09262546 30.57726658 55.09508444 32.84740419 55.09910583 35.11753845 C55.10196408 39.87305784 55.08725817 44.62810631 55.05981445 49.38354492 C55.0257128 55.48265094 55.03175639 61.58091587 55.05047703 67.68006229 C55.06103869 72.36664353 55.052117 77.05302861 55.03709221 81.7395916 C55.03190515 83.98868668 55.03239852 86.2378022 55.03863716 88.48689461 C55.04407987 91.62802416 55.02374418 94.76794381 54.99633789 97.90893555 C55.00286377 98.84047455 55.00938965 99.77201355 55.01611328 100.73178101 C54.92387089 106.94085837 54.92387089 106.94085837 52.7809906 110.22325134 C49.9246243 111.9775629 48.18484475 112.15381612 44.83984375 112.16455078 C43.14788879 112.18346375 43.14788879 112.18346375 41.42175293 112.20275879 C39.60133484 112.1906134 39.60133484 112.1906134 37.74414062 112.17822266 C36.49411255 112.18204956 35.24408447 112.18587646 33.95617676 112.18981934 C31.31283157 112.1925418 28.67096577 112.18717219 26.02783203 112.16845703 C22.64471572 112.1456662 19.26286866 112.15879249 15.87979889 112.18274689 C12.64703429 112.20069949 9.4144218 112.18811967 6.18164062 112.17822266 C4.96802856 112.18631958 3.7544165 112.1944165 2.50402832 112.20275879 C1.37605835 112.19015015 0.24808838 112.1775415 -0.9140625 112.16455078 C-1.90571411 112.16136841 -2.89736572 112.15818604 -3.91906738 112.15490723 C-6.53710938 111.64697266 -6.53710938 111.64697266 -8.85520935 110.22325134 C-11.44090354 106.26257073 -11.10303106 102.54450871 -11.07055664 97.90893555 C-11.07917221 96.92151871 -11.08778778 95.93410187 -11.09666443 94.91676331 C-11.11937827 91.65078563 -11.11257511 88.38566228 -11.10351562 85.11962891 C-11.10874899 82.85045618 -11.11502441 80.58128563 -11.12229919 78.31211853 C-11.1327136 73.55489877 -11.12812709 68.79797793 -11.11352539 64.04077148 C-11.09634106 57.94277394 -11.11982396 51.84571892 -11.15501499 45.74782658 C-11.17697069 41.06121062 -11.17555178 36.37482078 -11.16724968 31.68816948 C-11.16642907 29.43988448 -11.17331327 27.19158306 -11.18802071 24.94334602 C-11.20543101 21.79977551 -11.19095188 18.6579062 -11.16821289 15.5144043 C-11.17990509 14.58488953 -11.19159729 13.65537476 -11.2036438 12.69769287 C-11.13890289 8.30110779 -10.95702577 6.23591895 -8.34373474 2.57069397 C-5.22364229 0.43211558 -3.74013702 0.01564662 0 0 Z M6.46289062 17.64697266 C6.46289062 43.38697266 6.46289062 69.12697266 6.46289062 95.64697266 C16.69289063 95.64697266 26.92289062 95.64697266 37.46289062 95.64697266 C37.46289062 69.90697266 37.46289062 44.16697266 37.46289062 17.64697266 C27.23289062 17.64697266 17.00289063 17.64697266 6.46289062 17.64697266 Z " fill="#7D4BF5" transform="translate(386.537109375,400.35302734375)"/>
<path d="M0 0 C2.5 1.4375 2.5 1.4375 4 4 C4.3130292 7.03116605 4.23343397 9.96535839 4 13 C5.02480469 12.97679688 6.04960937 12.95359375 7.10546875 12.9296875 C8.46613851 12.91091964 9.8268162 12.89272053 11.1875 12.875 C11.86103516 12.85824219 12.53457031 12.84148437 13.22851562 12.82421875 C18.15671149 12.77613879 21.64456846 13.53800801 25.8125 16.125 C27.4081983 18.64452363 27.4114056 21.03463369 27.49609375 23.96484375 C26.7589329 26.98894454 25.43322036 28.08175472 23 30 C19.71948242 30.49829102 19.71948242 30.49829102 15.85546875 30.50390625 C15.16745682 30.51332748 14.47944489 30.52274872 13.77058411 30.53245544 C11.57591905 30.56105929 9.38233607 30.56418704 7.1875 30.5625 C5.00353306 30.56612344 2.82035552 30.57585272 0.6365509 30.60325623 C-1.35260471 30.62762684 -3.34199425 30.62997529 -5.33129883 30.63110352 C-9.62573604 31.06291922 -12.21014458 31.96126411 -16 34 C-17.8348589 37.25533121 -17.8348589 37.25533121 -18 41 C-16.54800266 45.05030837 -15.59941709 46.60038861 -12 49 C-9.12926744 49.20236785 -6.31058197 49.31726426 -3.4375 49.375 C5.64632075 49.74127582 12.91334003 50.89719508 19.875 57.1875 C26.04929078 64.09161239 27.64788461 70.73281026 27.31640625 79.91796875 C26.55669271 87.31814136 23.69685729 93.12036341 18 98 C13.33178219 100.92040166 9.56521459 103 4 103 C4.04640625 103.67546875 4.0928125 104.3509375 4.140625 105.046875 C4.43184885 112.24426451 4.43184885 112.24426451 2.5 115.625 C-1.04133753 117.57273564 -4.04518573 117.68214456 -8 117 C-11.23613354 115.25746655 -11.82395315 114.52814056 -13 111 C-13.03954234 108.66700175 -13.04401732 106.33291811 -13 104 C-14.09699219 104.03480469 -15.19398438 104.06960937 -16.32421875 104.10546875 C-17.77863045 104.13361865 -19.2330588 104.16091752 -20.6875 104.1875 C-21.40873047 104.21263672 -22.12996094 104.23777344 -22.87304688 104.26367188 C-27.47505239 104.32671305 -30.34086265 103.83600437 -34 101 C-35.92863839 98.45770394 -36.00902291 97.21654982 -35.875 94 C-34.83404575 90.43101401 -33.94266164 89.25163847 -31 87 C-28.38481111 86.61718421 -26.17675683 86.46493529 -23.56640625 86.49609375 C-22.49397926 86.4819619 -22.49397926 86.4819619 -21.39988708 86.46754456 C-19.12046529 86.43893036 -16.8420867 86.43581445 -14.5625 86.4375 C-12.2866362 86.43388561 -10.01153089 86.42427479 -7.73582458 86.39674377 C-6.3223981 86.38003219 -4.90872242 86.37701962 -3.49525452 86.38975525 C0.84478887 86.34361007 3.55535976 85.66388117 7 83 C9.32536063 79.51195905 9.33457898 78.09859246 9 74 C8.18020227 71.5406068 7.56803211 70.39336223 5.4375 68.91796875 C1.93446797 67.5987179 -1.55320199 67.66036229 -5.25 67.5625 C-15.02024778 67.12143546 -22.86371531 65.22777552 -30 58 C-35.07550594 50.8390139 -36.79190944 43.0622033 -35.66015625 34.3984375 C-33.85618554 26.78167228 -29.32379394 20.90077315 -22.83984375 16.55078125 C-19.18912998 14.60600849 -17.2550421 14 -13 14 C-13.061875 12.783125 -13.12375 11.56625 -13.1875 10.3125 C-13.19440601 6.41750797 -12.46062325 4.12309875 -10 1 C-6.78897726 -0.60551137 -3.48300792 -0.46807221 0 0 Z " fill="#784FF4" transform="translate(393,115)"/>
<path d="M0 0 C1.08462524 -0.01253311 2.16925049 -0.02506622 3.28674316 -0.03797913 C5.02909241 -0.01809181 5.02909241 -0.01809181 6.80664062 0.00219727 C8.00848999 -0.00021469 9.21033936 -0.00262665 10.4486084 -0.00511169 C12.98709415 -0.00413314 15.5256012 0.00926225 18.06396484 0.03417969 C21.94897984 0.0684807 25.83171973 0.05483808 29.71679688 0.03540039 C32.18425447 0.04229894 34.6517062 0.05197139 37.11914062 0.06469727 C38.86148987 0.05725746 38.86148987 0.05725746 40.63903809 0.04966736 C41.72366333 0.06550369 42.80828857 0.08134003 43.92578125 0.09765625 C44.87666626 0.10385483 45.82755127 0.11005341 46.80725098 0.11643982 C50.38599343 0.81000109 52.00287663 1.9475499 54.46289062 4.63110352 C55.09107971 7.74267578 55.09107971 7.74267578 55.09399414 11.44750977 C55.10114944 12.12441864 55.10830475 12.80132751 55.11567688 13.49874878 C55.1325536 15.73105856 55.11317114 17.96135683 55.09179688 20.19360352 C55.09262569 21.74772304 55.09508554 23.30184248 55.09910583 24.85595703 C55.10196309 28.11102729 55.08727093 31.36540918 55.05981445 34.62036133 C55.02573076 38.79037373 55.03174998 42.95915536 55.05047703 47.12922668 C55.06105153 50.33779131 55.05210532 53.5460701 55.03709221 56.75460815 C55.03191317 58.29197338 55.03238886 59.82936849 55.03863716 61.36672974 C55.04409524 63.51670385 55.02369981 65.6649232 54.99633789 67.81469727 C54.99013931 69.03729248 54.98394073 70.2598877 54.97755432 71.51953125 C54.46289062 74.63110352 54.46289062 74.63110352 52.7809906 77.02378845 C49.91935572 79.00797761 48.30537115 79.1428886 44.83984375 79.16455078 C43.71187378 79.18038712 42.58390381 79.19622345 41.42175293 79.21253967 C40.20814087 79.2075798 38.99452881 79.20261993 37.74414062 79.19750977 C36.49411255 79.20370834 35.24408447 79.20990692 33.95617676 79.21629333 C31.31282719 79.22339856 28.67099829 79.22214936 26.02783203 79.20751953 C22.64452551 79.19032369 19.26291606 79.21383641 15.87979889 79.24900913 C12.647059 79.2762756 9.41446308 79.26624757 6.18164062 79.26000977 C4.36122253 79.27989708 4.36122253 79.27989708 2.50402832 79.30018616 C0.81207336 79.28138649 0.81207336 79.28138649 -0.9140625 79.26220703 C-1.90571411 79.26124527 -2.89736572 79.26028351 -3.91906738 79.2592926 C-6.53710938 78.63110352 -6.53710938 78.63110352 -8.85520935 76.51231384 C-10.88258821 73.03927452 -11.04953815 70.90804648 -11.07055664 66.90063477 C-11.08348 65.91672256 -11.08348 65.91672256 -11.09666443 64.91293335 C-11.11926989 62.75608264 -11.11259731 60.60053688 -11.10351562 58.44360352 C-11.10875337 56.93814713 -11.11503041 55.43269404 -11.12229919 53.92724609 C-11.13269303 50.77661666 -11.12815656 47.62643918 -11.11352539 44.47583008 C-11.09633055 40.4436913 -11.11984461 36.41297662 -11.15501499 32.3809967 C-11.17700272 29.27362678 -11.17554452 26.16659702 -11.16724968 23.05917358 C-11.16643105 21.5728499 -11.17327776 20.08650103 -11.18802071 18.60025024 C-11.20549653 16.51980679 -11.1909062 14.44191431 -11.16821289 12.36157227 C-11.16725113 11.17974365 -11.16628937 9.99791504 -11.16529846 8.78027344 C-9.92973137 2.58626147 -6.10820128 0.00617807 0 0 Z M6.46289062 17.63110352 C6.46289062 32.48110352 6.46289062 47.33110352 6.46289062 62.63110352 C16.69289063 62.63110352 26.92289062 62.63110352 37.46289062 62.63110352 C37.46289062 47.78110352 37.46289062 32.93110352 37.46289062 17.63110352 C27.23289062 17.63110352 17.00289063 17.63110352 6.46289062 17.63110352 Z " fill="#5A69EB" transform="translate(244.537109375,433.368896484375)"/>
</svg>
