<?xml version="1.0" encoding="UTF-8"?>
<svg version="1.1" xmlns="http://www.w3.org/2000/svg" width="512" height="512">
<path d="M0 0 C12.36160025 9.03347711 20.40167188 21.66708948 23.19140625 36.80078125 C23.40045082 39.33254328 23.41956652 41.69781876 23.33984375 44.23046875 C23.31817139 45.02952637 23.29649902 45.82858398 23.27416992 46.65185547 C23.21735839 48.25250024 23.13128672 49.85243275 23.01293945 51.44970703 C22.78425598 55.76825469 22.78425598 55.76825469 24.79101562 59.43505859 C26.60760788 61.00768275 26.60760788 61.00768275 29.4375 62.78125 C33.88919532 59.16737374 37.94219093 55.30293765 41.90625 51.1640625 C42.89965017 50.13533031 43.89314125 49.10668592 44.88671875 48.078125 C46.42273475 46.48638836 47.95249665 44.89029123 49.46728516 43.27832031 C50.95163874 41.70295179 52.45752678 40.15111658 53.96875 38.6015625 C54.85111328 37.67617676 55.73347656 36.75079102 56.64257812 35.79736328 C60.23859121 33.20338389 62.08254132 33.18980622 66.4375 33.78125 C69.52368164 34.99047852 69.52368164 34.99047852 72.59765625 36.66015625 C73.72107422 37.25119141 74.84449219 37.84222656 76.00195312 38.45117188 C78.33864138 39.71541024 80.67457671 40.9810412 83.00976562 42.24804688 C84.69295898 43.13266602 84.69295898 43.13266602 86.41015625 44.03515625 C87.42343994 44.58502197 88.43672363 45.1348877 89.48071289 45.70141602 C93.70697105 47.24486741 96.46893971 46.35461077 100.65795898 45.13452148 C103.45781931 43.00533699 103.88655997 40.44433089 104.91015625 37.12890625 C105.11934189 36.47296982 105.32852753 35.81703339 105.54405212 35.14122009 C106.21049816 33.04629511 106.85668609 30.9458834 107.5 28.84375 C108.1488978 26.74595991 108.8022047 24.64990854 109.46665955 22.55699158 C110.06925322 20.65600838 110.65623631 18.75009783 111.24243164 16.84399414 C112.35699909 13.98755928 113.00930464 12.57479902 115.4375 10.78125 C118.17298756 9.86942081 119.82648238 9.64605765 122.64599609 9.62011719 C123.49052338 9.61050964 124.33505066 9.6009021 125.20516968 9.59100342 C126.56927475 9.5846286 126.56927475 9.5846286 127.9609375 9.578125 C128.89926422 9.57242493 129.83759094 9.56672485 130.80435181 9.56085205 C132.78980381 9.55140606 134.77527146 9.54486966 136.76074219 9.54101562 C139.79389864 9.53130952 142.82637756 9.50028214 145.859375 9.46875 C147.78905848 9.46221977 149.7187468 9.45696938 151.6484375 9.453125 C152.55379242 9.4407782 153.45914734 9.4284314 154.39193726 9.41571045 C159.17400349 9.43257801 162.66600628 9.49259137 166.4375 12.78125 C167.68212891 14.87719727 167.68212891 14.87719727 168.5390625 17.28515625 C168.86036133 18.17219238 169.18166016 19.05922852 169.51269531 19.97314453 C171.32052666 25.46249937 173.03248505 30.98301795 174.6171875 36.54101562 C176.30834927 42.00431256 176.30834927 42.00431256 180.2890625 45.97265625 C185.89851864 47.41329821 190.08648872 45.70381325 195.0625 43.05859375 C196.09890625 42.52041016 197.1353125 41.98222656 198.203125 41.42773438 C200.36099068 40.28755776 202.51724257 39.14432174 204.671875 37.99804688 C205.70828125 37.46115234 206.7446875 36.92425781 207.8125 36.37109375 C209.21628906 35.62653931 209.21628906 35.62653931 210.6484375 34.86694336 C213.85714288 33.61789637 216.02262194 33.37433156 219.4375 33.78125 C221.43945312 34.98071289 221.43945312 34.98071289 223.21875 36.69140625 C223.89550781 37.33094238 224.57226562 37.97047852 225.26953125 38.62939453 C225.98496094 39.33950684 226.70039063 40.04961914 227.4375 40.78125 C228.20449219 41.52874512 228.97148437 42.27624023 229.76171875 43.04638672 C232.17289871 45.41872426 234.55830201 47.81436506 236.9375 50.21875 C237.75992187 51.04568359 238.58234375 51.87261719 239.4296875 52.72460938 C241.43462113 54.74119959 243.43716253 56.76010236 245.4375 58.78125 C246.0975 58.45125 246.7575 58.12125 247.4375 57.78125 C247.41655273 57.21841309 247.39560547 56.65557617 247.37402344 56.07568359 C246.71945185 35.7466787 249.60402554 20.44167069 263.953125 5.10546875 C276.80424793 -6.91720129 290.95826704 -9.70883353 307.83984375 -9.50390625 C317.88053374 -9.16904831 327.19930227 -6.45694773 334.4375 0.78125 C335.37775796 3.95797867 335.30877058 6.59159852 334.4375 9.78125 C331.59457535 13.38271284 328.06794515 16.00475861 324.4375 18.78125 C323.32793168 19.65435294 322.21990197 20.52941412 321.11328125 21.40625 C319.36276423 22.78916092 317.60971485 24.16812282 315.84790039 25.53662109 C311.56916447 28.8605785 307.38431457 32.27942166 303.25 35.78125 C302.70947998 36.23806152 302.16895996 36.69487305 301.61206055 37.16552734 C300.21062218 38.35922098 298.82330311 39.56943989 297.4375 40.78125 C296.49970703 41.55275391 296.49970703 41.55275391 295.54296875 42.33984375 C294.24218812 43.73945346 294.24218812 43.73945346 294.40625 45.75390625 C295.47148104 50.26499749 295.47148104 50.26499749 298.75 53.34375 C301.85492094 53.84920225 303.42838284 53.73127128 306.4375 52.78125 C308.70528113 51.04927923 310.77527167 49.32120461 312.875 47.40625 C314.11504536 46.30877273 315.35729503 45.21378186 316.6015625 44.12109375 C317.55144043 43.28553955 317.55144043 43.28553955 318.52050781 42.43310547 C322.63539732 38.88734102 326.94491663 35.58817882 331.24609375 32.2734375 C333.23244137 30.74096121 335.13300527 29.18091913 337.03515625 27.5390625 C343.0895421 22.36739156 343.0895421 22.36739156 347.75 22.09375 C351.92876747 22.87284224 352.80903524 23.57353937 355.4375 26.78125 C360.95053288 40.07012775 359.12091405 54.58914894 354.4375 67.78125 C348.25489171 82.17684978 337.40093975 92.16974521 323.06640625 98.19921875 C311.06398017 102.19042166 297.61395822 103.39111246 285.46704102 99.08227539 C283.38474397 98.37672013 281.63655498 97.88315475 279.4375 97.78125 C276.73617971 99.408288 275.05041188 100.68369789 272.875 102.84375 C271.75683874 103.87416789 270.63706189 104.90283554 269.515625 105.9296875 C268.98775391 106.4256543 268.45988281 106.92162109 267.91601562 107.43261719 C265.2800052 109.83706263 262.38947696 111.79038182 259.4375 113.78125 C263.20189155 115.75515369 267.1014878 117.15572984 271.09765625 118.5859375 C273.83798963 119.9858407 274.81809646 121.18474921 276.4375 123.78125 C276.8117218 125.94372559 276.8117218 125.94372559 276.80981445 128.30273438 C276.81604324 129.19045532 276.82227203 130.07817627 276.82868958 130.99279785 C276.81487495 132.41948792 276.81487495 132.41948792 276.80078125 133.875 C276.80127975 134.85867554 276.80177826 135.84235107 276.80229187 136.85583496 C276.79995342 138.9336957 276.79023843 141.01155938 276.77368164 143.08935547 C276.75008745 146.26946346 276.75312284 149.44873295 276.75976562 152.62890625 C276.75418873 154.6484425 276.74707878 156.66797521 276.73828125 158.6875 C276.73919266 159.63862671 276.74010406 160.58975342 276.74104309 161.56970215 C276.73151108 162.4574231 276.72197906 163.34514404 276.7121582 164.25976562 C276.70755081 165.03823853 276.70294342 165.81671143 276.69819641 166.61877441 C276.39789446 169.10977782 275.80607769 170.68014803 274.4375 172.78125 C272.01707343 173.94818809 269.77727091 174.86249995 267.25 175.71875 C266.54472168 175.96963379 265.83944336 176.22051758 265.11279297 176.47900391 C262.89299291 177.26272419 260.66635935 178.02371965 258.4375 178.78125 C256.99609088 179.27993962 255.55468456 179.77863732 254.11328125 180.27734375 C243.86111111 183.78125 243.86111111 183.78125 241.4375 183.78125 C241.04269222 185.31796335 240.67259462 186.86103384 240.3125 188.40625 C240.10367187 189.26476562 239.89484375 190.12328125 239.6796875 191.0078125 C239.3854019 194.37785728 240.3044476 196.62625224 241.4375 199.78125 C242.70968573 199.86282443 242.70968573 199.86282443 244.00757217 199.94604683 C252.51791715 200.51895713 260.97267239 201.3306767 269.44433594 202.31591797 C270.77988562 202.46906438 272.11546288 202.62197034 273.45106506 202.7746582 C277.03173205 203.18492617 280.61192703 203.59917031 284.19198513 204.01471472 C286.43636843 204.2751191 288.68083648 204.5347809 290.92533112 204.79422379 C297.97145128 205.60887157 305.01728695 206.42591638 312.06270671 207.24660003 C320.1546372 208.18917894 328.24743678 209.12377879 336.34108329 210.05150497 C342.63096873 210.77295571 348.92001849 211.50141159 355.20848489 212.23512757 C358.95059709 212.67159493 362.69298532 213.1051996 366.43627167 213.53149033 C369.953658 213.9322554 373.46991895 214.34177879 376.98553276 214.75779724 C378.87452834 214.97915498 380.76455981 215.19161751 382.65461731 215.40371704 C400.96925435 217.59755695 400.96925435 217.59755695 406.8125 222.96875 C407.41835938 223.49855469 408.02421875 224.02835938 408.6484375 224.57421875 C413.43870568 230.48361072 415.03380211 236.04111567 414.95507812 243.54882812 C414.96559204 244.80414589 414.96559204 244.80414589 414.97631836 246.08482361 C414.99380101 248.82772852 414.98231062 251.56958616 414.96875 254.3125 C414.97144772 256.23246456 414.97533247 258.15242779 414.98034668 260.0723877 C414.98622855 264.08696562 414.97772113 268.1011864 414.95898438 272.11572266 C414.93619567 277.24694502 414.9493258 282.37733034 414.97327423 287.50852203 C414.9877677 291.47038006 414.98310996 295.43204151 414.97276306 299.39390564 C414.97010558 301.28523357 414.97333089 303.17657967 414.98268127 305.06788635 C414.9929056 307.71695853 414.97726461 310.36469827 414.95507812 313.01367188 C414.96317505 313.78585556 414.97127197 314.55803925 414.97961426 315.35362244 C414.87850375 321.91068406 412.79270985 327.04462965 408.5078125 332.0234375 C407.86585938 332.56226563 407.22390625 333.10109375 406.5625 333.65625 C405.92570312 334.21054687 405.28890625 334.76484375 404.6328125 335.3359375 C399.00428398 339.04155236 393.55673539 339.04089922 387.0625 338.90625 C386.23105469 338.89722656 385.39960938 338.88820313 384.54296875 338.87890625 C382.50768663 338.8555122 380.47255436 338.81964725 378.4375 338.78125 C378.37018677 339.87796021 378.37018677 339.87796021 378.30151367 340.99682617 C378.0896943 344.32183635 377.85756192 347.6451289 377.625 350.96875 C377.55474609 352.11923828 377.48449219 353.26972656 377.41210938 354.45507812 C377.33154297 355.56689453 377.25097656 356.67871094 377.16796875 357.82421875 C377.09989014 358.84539795 377.03181152 359.86657715 376.96166992 360.91870117 C376.31841533 364.43158431 374.98765993 367.23109007 372.4375 369.78125 C368.52570442 370.45113693 364.90974753 370.51737377 361.31445312 368.71972656 C359.17936392 367.20573543 357.18310142 365.59978651 355.1875 363.90625 C353.70318392 362.70826033 352.21880831 361.51034441 350.734375 360.3125 C350.00927734 359.714375 349.28417969 359.11625 348.53710938 358.5 C345.55889861 356.06202281 342.5021052 353.73390386 339.4375 351.40625 C333.46490795 346.81319687 333.46490795 346.81319687 331.94346619 345.03979492 C326.71363129 339.66814965 321.63068032 339.11573045 314.48657227 338.97412109 C311.47530342 338.95081596 308.46824751 338.96556533 305.45718575 339.00876999 C302.20598175 339.05537448 298.957057 339.05952549 295.70555115 339.05337524 C289.97324484 339.04945723 284.24187055 339.08280685 278.50976562 339.128479 C269.34038536 339.20103166 260.17151211 339.24205743 251.00184441 339.23524857 C247.81190549 339.24206359 244.6233964 339.2802621 241.43373108 339.32064819 C221.63202691 339.43337996 221.63202691 339.43337996 213.60475159 332.10897827 C206.01006789 323.4985886 207.17367874 310.68855272 207.4609375 299.921875 C207.48596344 298.65148376 207.51098938 297.38109253 207.53677368 296.07220459 C207.60442989 292.73807564 207.68163931 289.40446248 207.76373291 286.07067871 C207.84549377 282.65145783 207.91434608 279.23197772 207.984375 275.8125 C208.12369126 269.13511986 208.27563591 262.45811962 208.4375 255.78125 C207.52524658 255.49354736 206.61299316 255.20584473 205.6730957 254.90942383 C203.0913574 254.00923423 200.99875391 253.10814714 198.66796875 251.73046875 C198.00603516 251.36244141 197.34410156 250.99441406 196.66210938 250.61523438 C195.30444325 249.8511404 193.95779698 249.06712633 192.62304688 248.26367188 C188.89812055 246.2407448 185.99181435 245.35820868 181.7578125 246.1171875 C178.43969103 247.48162531 177.54384151 248.57914048 175.85375977 251.79125977 C174.4258229 255.73321754 173.23517291 259.67891526 172.125 263.71875 C171.52480507 265.80098512 170.91416275 267.87930831 170.28999329 269.95448303 C169.72800551 271.83715734 169.19652548 273.72885894 168.66674805 275.62084961 C167.28623392 279.17015554 166.65817414 280.72712909 163.4375 282.78125 C159.92573626 283.367597 156.45981542 283.34142119 152.90625 283.3125 C151.87818237 283.3163269 150.85011475 283.32015381 149.79089355 283.32409668 C147.61888652 283.32681674 145.44684677 283.31944906 143.27490234 283.30273438 C139.94945271 283.28132695 136.62616365 283.30253378 133.30078125 283.328125 C131.1900994 283.32548174 129.07941889 283.32035681 126.96875 283.3125 C125.97387573 283.32059692 124.97900146 283.32869385 123.95397949 283.33703613 C117.16424302 283.24476105 117.16424302 283.24476105 113.9206543 281.17602539 C112.05784551 278.1682408 111.13047457 275.34308376 110.17578125 271.93359375 C109.7755099 270.59267386 109.37377187 269.25219105 108.97070312 267.91210938 C108.35381241 265.8137965 107.74874284 263.71417529 107.16918945 261.60522461 C105.12970415 253.611604 105.12970415 253.611604 100.56494141 246.96044922 C96.77569433 245.17650815 94.30225023 245.49661134 90.35864258 246.79467773 C86.85994135 248.38166695 83.53787455 250.15186383 80.1875 252.03125 C77.89318824 253.27038274 75.59640354 254.50495039 73.296875 255.734375 C72.29108398 256.29286133 71.28529297 256.85134766 70.24902344 257.42675781 C66.60274374 259.18340593 64.05883427 260.14331483 60.04980469 259.24804688 C56.32558073 257.15691253 53.61611024 254.34866902 50.640625 251.3125 C50.00638611 250.67638794 49.37214722 250.04027588 48.71868896 249.3848877 C47.38396453 248.04345817 46.05283414 246.69844416 44.72509766 245.35009766 C42.6877773 243.28153156 40.63989445 241.22391181 38.58984375 239.16796875 C37.29364354 237.86260175 35.99804927 236.55663274 34.703125 235.25 C33.78288544 234.32338562 33.78288544 234.32338562 32.84405518 233.37805176 C27.61954715 228.06460721 27.61954715 228.06460721 26.96484375 223.44921875 C27.04546728 216.95682591 30.88836709 211.58807808 34 206.09375 C35.24341488 203.88876094 36.47448368 201.67675122 37.69140625 199.45703125 C38.24127197 198.48677002 38.7911377 197.51650879 39.35766602 196.5168457 C40.60347472 193.36077822 40.41048363 191.97646775 39.4375 188.78125 C39.10416667 187.11458333 38.77083333 185.44791667 38.4375 183.78125 C37.59445313 183.57822266 37.59445313 183.57822266 36.734375 183.37109375 C30.02838734 181.65345581 23.48262799 179.52386702 16.9375 177.28125 C16.05288086 176.98468506 15.16826172 176.68812012 14.25683594 176.38256836 C13.41926758 176.0913208 12.58169922 175.80007324 11.71875 175.5 C10.59049805 175.11231445 10.59049805 175.11231445 9.43945312 174.71679688 C6.49033016 173.33862136 4.88501687 171.67628373 3.4375 168.78125 C3.32314993 167.35820047 3.26816724 165.93012796 3.24462891 164.50268555 C3.22856598 163.61804123 3.21250305 162.73339691 3.19595337 161.82194519 C3.15150285 157.77428948 3.11043859 153.72679778 3.08740234 149.67895508 C3.07084159 147.54407857 3.04355012 145.40925754 3.00537109 143.2746582 C2.95060667 140.1971357 2.92872887 137.12091289 2.9140625 134.04296875 C2.88005844 132.61460945 2.88005844 132.61460945 2.84536743 131.15739441 C2.86006566 126.54633196 2.9049516 124.47250378 5.79443359 120.72192383 C8.30838583 118.87605219 10.47125218 117.71349931 13.4375 116.78125 C9.34627005 112.52188732 4.94897444 108.76253987 0.375 105.03125 C-0.33205078 104.44214844 -1.03910156 103.85304688 -1.76757812 103.24609375 C-2.45400391 102.68535156 -3.14042969 102.12460938 -3.84765625 101.546875 C-4.46519775 101.03930664 -5.08273926 100.53173828 -5.71899414 100.00878906 C-7.70212899 98.68827496 -9.21689019 98.14466283 -11.5625 97.78125 C-13.74118369 98.2775995 -13.74118369 98.2775995 -16 99.15625 C-30.81155738 103.86901826 -45.8766233 101.84977973 -59.5625 94.78125 C-72.37272847 87.39653006 -81.96648183 75.9462028 -86.18481445 61.67602539 C-87.52537107 56.2155351 -87.91386187 50.95357474 -87.875 45.34375 C-87.87081055 44.51552734 -87.86662109 43.68730469 -87.86230469 42.83398438 C-87.60865212 29.09357075 -87.60865212 29.09357075 -82.953125 24.03125 C-79.44252864 22.19564406 -76.36611071 21.91639793 -72.5625 22.78125 C-69.55588221 24.47358442 -67.11262553 26.65939591 -64.5625 28.96875 C-63.07887099 30.25216496 -61.59447622 31.53469514 -60.109375 32.81640625 C-59.35978516 33.47398926 -58.61019531 34.13157227 -57.83789062 34.80908203 C-54.23544107 37.93146267 -50.52492858 40.91630781 -46.8125 43.90625 C-45.52582249 44.95025076 -44.23935139 45.99450599 -42.953125 47.0390625 C-42.36877686 47.50634766 -41.78442871 47.97363281 -41.18237305 48.45507812 C-39.7178596 49.65405884 -38.30990238 50.92131676 -36.91015625 52.1953125 C-34.69520977 54.01953157 -34.69520977 54.01953157 -32.10546875 53.734375 C-30.93951172 53.38632813 -30.93951172 53.38632813 -29.75 53.03125 C-28.368125 52.61875 -26.98625 52.20625 -25.5625 51.78125 C-24.9025 48.48125 -24.2425 45.18125 -23.5625 41.78125 C-24.8825 41.12125 -26.2025 40.46125 -27.5625 39.78125 C-29.27963895 38.46486957 -30.96423476 37.10557458 -32.625 35.71875 C-33.59566406 34.91308594 -34.56632812 34.10742188 -35.56640625 33.27734375 C-36.55511719 32.45363281 -37.54382812 31.62992188 -38.5625 30.78125 C-40.3942253 29.27928678 -42.2275256 27.77924201 -44.0625 26.28125 C-44.96097656 25.54390625 -45.85945313 24.8065625 -46.78515625 24.046875 C-48.7009392 22.48407034 -50.626037 20.93263899 -52.55859375 19.390625 C-53.52925781 18.61203125 -54.49992187 17.8334375 -55.5 17.03125 C-56.81291016 15.98710938 -56.81291016 15.98710938 -58.15234375 14.921875 C-64.16743959 9.579456 -64.16743959 9.579456 -65.015625 5.71875 C-64.69356843 2.64682582 -64.31946103 0.56077626 -62.12109375 -1.703125 C-60.00784564 -3.13254543 -57.89202922 -4.17805412 -55.5625 -5.21875 C-54.36173828 -5.80849609 -54.36173828 -5.80849609 -53.13671875 -6.41015625 C-35.89451894 -13.57153302 -15.10732993 -10.13296519 0 0 Z M-38.5625 7.78125 C-35.40727699 11.0094586 -32.19727656 14.00640727 -28.6875 16.84375 C-27.74390625 17.60945313 -26.8003125 18.37515625 -25.828125 19.1640625 C-23.41037816 21.10824566 -20.98014716 23.03623075 -18.546875 24.9609375 C-17.86608887 25.50097412 -17.18530273 26.04101074 -16.48388672 26.59741211 C-15.13411237 27.66682889 -13.7816239 28.73283011 -12.42626953 29.79516602 C-7.6736516 33.55894679 -7.6736516 33.55894679 -6.5625 35.78125 C-6.61114133 44.50020786 -7.01584782 54.72380718 -10.5625 62.78125 C-14.90033481 66.41033117 -19.79230424 68.24593971 -25.0625 70.09375 C-26.16271484 70.50850586 -26.16271484 70.50850586 -27.28515625 70.93164062 C-31.72330941 72.50762167 -34.96273316 73.40217847 -39.5625 71.78125 C-42.24597375 70.027861 -44.63940203 67.99977577 -47.0625 65.90625 C-48.46919905 64.72684641 -49.87676939 63.54848133 -51.28515625 62.37109375 C-51.9930127 61.77409668 -52.70086914 61.17709961 -53.43017578 60.56201172 C-56.73686961 57.80050213 -60.11196973 55.12938151 -63.5 52.46875 C-64.09683594 51.99518066 -64.69367188 51.52161133 -65.30859375 51.03369141 C-67.67624195 48.77865846 -67.67624195 48.77865846 -70.5625 47.78125 C-70.22311126 57.96291229 -66.28420981 66.28967625 -59.3125 73.71875 C-51.54679506 80.8991003 -42.47357931 84.58318174 -31.91015625 84.84765625 C-25.41096487 84.53994705 -20.36532737 82.67023393 -14.58203125 79.7421875 C-10.67781094 78.499706 -7.42954574 78.56858424 -3.5625 79.78125 C-1.15353372 81.41693235 0.73015625 82.87912095 2.8125 84.84375 C3.94696153 85.85784036 5.08238578 86.8708547 6.21875 87.8828125 C7.04246094 88.62966309 7.04246094 88.62966309 7.8828125 89.39160156 C10.71276035 91.92113409 13.70484931 94.24102462 16.6875 96.5859375 C18.90306477 98.35461278 21.08006328 100.15300566 23.25 101.9765625 C24.25571045 102.81006226 24.25571045 102.81006226 25.28173828 103.66040039 C26.61653035 104.76684321 27.94334455 105.88299484 29.26123047 107.00952148 C30.1799292 107.76471069 30.1799292 107.76471069 31.1171875 108.53515625 C31.66101074 108.99220947 32.20483398 109.4492627 32.76513672 109.92016602 C34.43605266 110.96483833 34.43605266 110.96483833 36.53173828 110.62475586 C38.83545609 109.83359129 38.83545609 109.83359129 40.25 106.53125 C41.69712149 101.96139265 41.57643177 100.22862898 39.59765625 95.9765625 C36.15922442 89.68704663 31.07157165 86.03081257 25.4375 81.78125 C23.55610677 80.24739191 21.68111811 78.70564585 19.8125 77.15625 C16.58672943 74.48412232 13.3369865 72.01015041 9.875 69.65625 C7.12987943 67.59881877 6.39425366 66.69309399 4.8125 63.46875 C4.41442703 59.55436578 4.93716338 56.91612651 5.91015625 53.1640625 C8.08080251 43.35595716 5.56241244 34.28525759 0.8125 25.65625 C-5.15682736 16.33649134 -13.01054049 10.95508157 -23.5625 7.78125 C-28.66004285 6.76882135 -33.51067785 6.26570335 -38.5625 7.78125 Z M277.1796875 16.53125 C270.98112514 22.18773276 265.84070881 30.3935299 264.4375 38.78125 C264.34400674 41.1130818 264.30755572 43.44754991 264.3125 45.78125 C264.30992187 46.998125 264.30734375 48.215 264.3046875 49.46875 C264.41258668 52.1598826 264.69566238 54.2297782 265.4375 56.78125 C265.90793558 61.01517019 265.87877101 63.08992543 263.5625 66.71875 C261.10593726 69.36481901 258.2992138 71.46511689 255.4375 73.65625 C250.80281498 77.29827722 248.09642633 80.57313081 245.4375 85.78125 C244.81488281 86.91691406 244.19226563 88.05257812 243.55078125 89.22265625 C242.88562904 90.47008176 242.22287754 91.71879025 241.5625 92.96875 C241.23934814 93.56316895 240.91619629 94.15758789 240.58325195 94.77001953 C239.16712132 97.54776931 238.41576427 99.4424562 238.6171875 102.58203125 C239.32562378 104.94630591 239.32562378 104.94630591 241.4375 106.78125 C241.97117187 106.2965625 242.50484375 105.811875 243.0546875 105.3125 C247.79281191 101.04982752 252.61005415 96.94141065 257.625 93.0078125 C259.75638435 91.32046655 261.85144408 89.60895388 263.9375 87.8671875 C265.16652488 86.85920209 266.39569074 85.85138857 267.625 84.84375 C268.48001099 84.1161145 268.48001099 84.1161145 269.35229492 83.3737793 C273.27374039 80.19641749 276.22444348 78.83408503 281.4375 78.78125 C284.61328125 79.7421875 284.61328125 79.7421875 287.75 81.15625 C298.16135161 85.43276628 306.98331697 85.77819427 317.48828125 81.5546875 C329.74585491 75.84568059 335.44969091 68.08828035 340.4375 55.78125 C341.12883803 52.97089956 341.37944425 50.68403764 341.4375 47.78125 C338.50305221 49.13442413 336.15519297 50.68652307 333.6796875 52.7578125 C332.97634277 53.34280518 332.27299805 53.92779785 331.54833984 54.53051758 C330.8105127 55.14950928 330.07268555 55.76850098 329.3125 56.40625 C327.78131361 57.67325396 326.25006391 58.94018142 324.71875 60.20703125 C322.2414988 62.26689594 319.77938537 64.34037549 317.34375 66.44921875 C316.09078125 67.51076172 316.09078125 67.51076172 314.8125 68.59375 C313.77222656 69.50060547 313.77222656 69.50060547 312.7109375 70.42578125 C308.80782812 72.75289285 305.41120443 73.23243238 300.95654297 72.21411133 C298.15187979 71.33953073 295.42846092 70.33809762 292.6875 69.28125 C291.27017578 68.79011719 291.27017578 68.79011719 289.82421875 68.2890625 C285.23067208 66.55096376 282.96919498 65.66171276 280.37109375 61.359375 C279.01545819 56.16371738 278.08465771 51.11196145 277.4375 45.78125 C277.20353516 44.34458984 277.20353516 44.34458984 276.96484375 42.87890625 C276.54257451 38.63837145 276.55161112 35.95117948 279.1796875 32.48046875 C281.81444861 30.04871383 284.55897298 27.91948168 287.4375 25.78125 C288.61912444 24.85437488 289.79738879 23.92320381 290.97265625 22.98828125 C293.373914 21.08155141 295.78480034 19.18860418 298.20703125 17.30859375 C301.71928624 14.57344934 305.13551055 11.76876426 308.4375 8.78125 C308.4375 8.45125 308.4375 8.12125 308.4375 7.78125 C296.79480893 5.19398532 286.37969335 9.40044962 277.1796875 16.53125 Z M126.4375 26.78125 C125.01048741 30.87371825 123.58536175 34.9667428 122.16503906 39.06152344 C121.68112265 40.45481297 121.1961014 41.84771928 120.70996094 43.24023438 C120.01207494 45.2398914 119.3181516 47.24088523 118.625 49.2421875 C118.20605469 50.44665527 117.78710938 51.65112305 117.35546875 52.89208984 C116.33656287 55.59368568 116.33656287 55.59368568 116.4375 57.78125 C114.58125 58.3690625 114.58125 58.3690625 112.6875 58.96875 C107.76239369 60.56650102 103.17354187 62.71298258 98.52734375 64.98828125 C89.7229195 67.24782376 81.18524848 60.60050328 73.86328125 56.41796875 C72.96480469 55.92425781 72.06632812 55.43054688 71.140625 54.921875 C70.33270508 54.46329102 69.52478516 54.00470703 68.69238281 53.53222656 C66.47638442 52.55098081 66.47638442 52.55098081 64.38671875 53.41650391 C62.2075671 54.94223759 60.41354476 56.57978516 58.546875 58.4765625 C57.48339844 59.54970703 57.48339844 59.54970703 56.3984375 60.64453125 C55.66882813 61.39089844 54.93921875 62.13726562 54.1875 62.90625 C53.44242188 63.66035156 52.69734375 64.41445312 51.9296875 65.19140625 C50.0943658 67.05025772 48.2638809 68.91362005 46.4375 70.78125 C48.32346713 77.39297384 51.71009761 83.2525244 54.98046875 89.26171875 C57.86401355 94.80182377 59.27842161 98.53081776 58.4375 104.78125 C57.49554284 107.69430191 56.27431663 110.40519492 54.9375 113.15625 C52.4582353 117.78459845 52.4582353 117.78459845 51.4375 122.78125 C50.54828857 123.04192261 50.54828857 123.04192261 49.64111328 123.30786133 C43.15178983 125.22989863 36.72690796 127.31125119 30.3125 129.46875 C27.05375 130.561875 23.795 131.655 20.4375 132.78125 C20.4375 141.69125 20.4375 150.60125 20.4375 159.78125 C27.04161038 162.26322257 27.04161038 162.26322257 33.70703125 164.46484375 C34.61517578 164.75294922 35.52332031 165.04105469 36.45898438 165.33789062 C38.33632467 165.93038921 40.2166271 166.51357458 42.09960938 167.08789062 C43.00130859 167.37728516 43.90300781 167.66667969 44.83203125 167.96484375 C45.64518799 168.21806396 46.45834473 168.47128418 47.29614258 168.73217773 C52.14497192 171.10766738 53.70364214 176.27766834 55.625 181.03125 C55.89763672 181.66160156 56.17027344 182.29195312 56.45117188 182.94140625 C58.3043041 187.50224797 59.49359764 191.86882013 58.4375 196.78125 C56.68457383 200.86518332 54.52470286 204.6807417 52.3125 208.53125 C51.14953218 210.55944552 50.00033825 212.59562118 48.8671875 214.640625 C48.35397949 215.53233398 47.84077148 216.42404297 47.31201172 217.34277344 C46.19042207 219.70825926 46.19042207 219.70825926 47.06567383 221.85717773 C49.75160213 225.62436067 53.00871316 228.80628276 56.25 232.09375 C56.96220703 232.84720703 57.67441406 233.60066406 58.40820312 234.37695312 C59.10494141 235.08400391 59.80167969 235.79105469 60.51953125 236.51953125 C61.15093018 237.16962158 61.7823291 237.81971191 62.43286133 238.48950195 C64.38345335 240.02480995 64.38345335 240.02480995 66.88012695 239.64160156 C69.54504824 238.74506861 71.82396478 237.65672716 74.2734375 236.27734375 C75.62308594 235.53774414 75.62308594 235.53774414 77 234.78320312 C78.87070361 233.74262424 80.7379286 232.69576619 82.6015625 231.64257812 C87.7176042 228.8543354 91.46931595 226.82330822 97.4375 227.78125 C100.44945368 228.66830321 103.30227232 229.79760117 106.1875 231.03125 C106.94160156 231.33160156 107.69570312 231.63195312 108.47265625 231.94140625 C112.60927393 233.66805839 115.01527807 234.86464458 117.4375 238.78125 C118.26195444 240.8535134 119.00897581 242.95737857 119.69921875 245.078125 C120.09560547 246.28339844 120.49199219 247.48867188 120.90039062 248.73046875 C121.30451172 249.98472656 121.70863281 251.23898437 122.125 252.53125 C122.54422695 253.8140294 122.96414175 255.09658422 123.38476562 256.37890625 C124.40911182 259.51081531 125.42419824 262.6457502 126.4375 265.78125 C135.3475 265.78125 144.2575 265.78125 153.4375 265.78125 C154.10136719 263.72261719 154.76523438 261.66398438 155.44921875 259.54296875 C156.10693531 257.54581737 156.7708067 255.55081265 157.43530273 253.5559082 C157.8926245 252.1719635 158.34355124 250.78588807 158.7878418 249.39770508 C159.42894666 247.39846075 160.09293048 245.40809772 160.76171875 243.41796875 C161.15447998 242.21873779 161.54724121 241.01950684 161.9519043 239.78393555 C163.67073369 236.30983815 164.97622043 235.39724592 168.4375 233.78125 C169.52804687 233.25144531 170.61859375 232.72164062 171.7421875 232.17578125 C173.50949219 231.39267578 173.50949219 231.39267578 175.3125 230.59375 C176.48554688 230.06394531 177.65859375 229.53414062 178.8671875 228.98828125 C183.43230188 227.44493295 186.96320716 226.7795734 191.54882812 228.63598633 C193.83007228 229.78037035 196.04010316 231.00476145 198.25 232.28125 C199.75464237 233.12832677 201.26106984 233.97224298 202.76953125 234.8125 C203.42671143 235.18955078 204.0838916 235.56660156 204.76098633 235.95507812 C206.42499521 236.92859446 206.42499521 236.92859446 208.4375 236.78125 C208.47488281 235.5025 208.51226562 234.22375 208.55078125 232.90625 C208.61648742 231.1978896 208.68293311 229.48955753 208.75 227.78125 C208.78383789 226.52248047 208.78383789 226.52248047 208.81835938 225.23828125 C209.14396051 217.60145458 210.55880582 211.1659195 215.9375 205.46875 C216.5253125 204.83324219 217.113125 204.19773438 217.71875 203.54296875 C219.27959611 201.94310148 220.84978643 200.3544418 222.4375 198.78125 C222.1075 198.12125 221.7775 197.46125 221.4375 196.78125 C220.96939195 190.38843112 222.12980871 185.82185917 224.625 179.96875 C224.91697266 179.21916016 225.20894531 178.46957031 225.50976562 177.69726562 C225.80947266 176.97603516 226.10917969 176.25480469 226.41796875 175.51171875 C226.68504639 174.86614014 226.95212402 174.22056152 227.22729492 173.55541992 C230.0266567 169.45153409 234.80854128 168.17741812 239.359375 166.7734375 C240.46667969 166.42667969 241.57398438 166.07992187 242.71484375 165.72265625 C243.86082031 165.37074219 245.00679687 165.01882812 246.1875 164.65625 C248.47478556 163.94797844 250.76129111 163.23718124 253.046875 162.5234375 C254.05717773 162.2126123 255.06748047 161.90178711 256.10839844 161.58154297 C258.37017139 160.99489565 258.37017139 160.99489565 259.4375 159.78125 C259.52508003 157.78160018 259.54446576 155.7788889 259.53515625 153.77734375 C259.53193359 152.56240234 259.52871094 151.34746094 259.52539062 150.09570312 C259.51701172 148.81630859 259.50863281 147.53691406 259.5 146.21875 C259.49323242 144.29385742 259.49323242 144.29385742 259.48632812 142.33007812 C259.47449545 139.14708978 259.45801068 135.96419238 259.4375 132.78125 C255.34543253 131.35316631 251.25199396 129.92910715 247.15722656 128.50878906 C245.76393703 128.02487265 244.37103072 127.5398514 242.97851562 127.05371094 C240.9788586 126.35582494 238.97786477 125.6619016 236.9765625 124.96875 C235.77209473 124.54980469 234.56762695 124.13085938 233.32666016 123.69921875 C230.62506432 122.68031287 230.62506432 122.68031287 228.4375 122.78125 C228.26734375 122.23597656 228.0971875 121.69070312 227.921875 121.12890625 C226.35923273 116.26642899 224.56660878 111.74841406 222.20703125 107.21484375 C220.18672828 100.82576379 221.20780472 96.741107 224.1328125 90.890625 C225.26028946 88.76241323 226.40400694 86.64273845 227.5625 84.53125 C228.72545008 82.40892973 229.87463813 80.27899169 231.0078125 78.140625 C231.52102051 77.20702148 232.03422852 76.27341797 232.56298828 75.31152344 C233.6825052 72.86564927 233.6825052 72.86564927 232.8203125 70.68945312 C231.27141671 68.55206444 229.62446574 66.74302581 227.7421875 64.890625 C227.02675781 64.18164062 226.31132812 63.47265625 225.57421875 62.7421875 C224.82785156 62.01257813 224.08148438 61.28296875 223.3125 60.53125 C222.55839844 59.78617188 221.80429687 59.04109375 221.02734375 58.2734375 C219.16849228 56.4381158 217.30512995 54.6076309 215.4375 52.78125 C208.9367088 54.62806568 203.30012727 57.97940067 197.42578125 61.23632812 C187.48260769 66.61892049 187.48260769 66.61892049 182.34033203 65.2043457 C179.9355039 64.35306792 177.59769563 63.40397304 175.25 62.40625 C173.65242474 61.75240625 172.0547717 61.09875249 170.45703125 60.4453125 C169.75682861 60.15092285 169.05662598 59.8565332 168.33520508 59.55322266 C166.72704094 58.89903315 165.08453983 58.33026328 163.4375 57.78125 C162.61791992 55.88720703 162.61791992 55.88720703 161.98046875 53.4140625 C160.94999117 49.64035008 159.85696528 45.92049061 158.61328125 42.2109375 C158.33653564 41.38319824 158.05979004 40.55545898 157.7746582 39.70263672 C157.436521 38.6973291 157.09838379 37.69202148 156.75 36.65625 C155.656875 33.3975 154.56375 30.13875 153.4375 26.78125 C144.5275 26.78125 135.6175 26.78125 126.4375 26.78125 Z M226.39926147 217.18785095 C224.91130876 221.20012972 225.02087033 225.02874893 225.04931641 229.27563477 C225.04405945 230.23700348 225.03880249 231.19837219 225.03338623 232.18887329 C225.02018106 235.36696614 225.02892563 238.5445583 225.0390625 241.72265625 C225.03704208 243.92935787 225.03413092 246.13605884 225.03036499 248.34275818 C225.02594107 252.96709552 225.03237564 257.59125903 225.04638672 262.21557617 C225.0634885 268.1498957 225.05363135 274.0838085 225.03566933 280.01811314 C225.02484197 284.57422464 225.02827286 289.1302393 225.0360527 293.68635368 C225.03805709 295.87487778 225.03558712 298.06341061 225.02861404 300.25192451 C225.02101582 303.30694083 225.03258073 306.36129306 225.04931641 309.41625977 C225.04324371 310.32491287 225.03717102 311.23356598 225.03091431 312.16975403 C225.03937378 313.00109863 225.04783325 313.83244324 225.05654907 314.6889801 C225.05768015 315.41107949 225.05881123 316.13317888 225.05997658 316.87716007 C225.56015411 319.39987245 226.37295101 320.27368633 228.4375 321.78125 C230.39509802 322.22006121 230.39509802 322.22006121 232.572052 322.13960266 C233.41299911 322.14346985 234.25394623 322.14733704 235.12037659 322.15132141 C236.49962563 322.13502937 236.49962563 322.13502937 237.90673828 322.1184082 C238.87783035 322.1189621 239.84892242 322.11951599 240.84944153 322.12008667 C242.9611017 322.1198265 245.07276895 322.11293242 247.18439102 322.10024452 C250.53099324 322.08190421 253.87696801 322.0845242 257.22360229 322.0933075 C266.73966042 322.11514249 276.2554811 322.10427069 285.77148438 322.06616211 C291.59121454 322.04432929 297.41032943 322.05164151 303.23003769 322.0766201 C305.44431481 322.08020717 307.65864043 322.07258594 309.87283707 322.05336952 C312.97987451 322.02694071 316.08484354 322.03751527 319.19189453 322.0559082 C320.0992485 322.03897415 321.00660248 322.0220401 321.94145203 322.0045929 C328.92741044 322.10497399 333.03339341 324.49500676 338.4375 328.78125 C339.09590441 329.28212789 339.75430882 329.78300577 340.43266487 330.29906178 C342.16439313 331.62177794 343.86571477 332.97657018 345.5625 334.34375 C350.09228233 337.97476599 354.68847746 341.44001659 359.4375 344.78125 C362.08311037 340.81283444 362.10647539 336.94920762 362.47265625 332.31835938 C362.80155232 329.18764108 363.18437613 327.11249351 365.11376953 324.58764648 C368.06070633 322.2967886 369.67319807 322.29648479 373.375 322.3125 C374.51710938 322.29832031 375.65921875 322.28414063 376.8359375 322.26953125 C379.23697917 322.27734375 381.63802083 322.28515625 384.0390625 322.29296875 C385.18117188 322.27878906 386.32328125 322.26460938 387.5 322.25 C388.54285156 322.25451172 389.58570313 322.25902344 390.66015625 322.26367188 C394.27636949 321.6355392 395.22856513 320.69783972 397.4375 317.78125 C397.83230162 315.06241086 397.98525614 312.74792826 397.95507812 310.03100586 C397.9620874 309.25495499 397.96909668 308.47890411 397.97631836 307.67933655 C397.99390302 305.1178901 397.98227573 302.55755113 397.96875 299.99609375 C397.97144452 298.21537565 397.97532661 296.43465898 397.98034668 294.65394592 C397.98624211 290.92402116 397.97767645 287.19447979 397.95898438 283.46459961 C397.93617805 278.68025982 397.94932797 273.89681672 397.97327423 269.11250973 C397.98771697 265.43650026 397.98313356 261.76070401 397.97276306 258.08468819 C397.97009241 256.3204087 397.97337743 254.55610993 397.98268127 252.79185295 C397.99282393 250.32807878 397.97738026 247.86576479 397.95507812 245.40209961 C397.96317505 244.67111053 397.97127197 243.94012146 397.97961426 243.1869812 C397.98642855 240.91950926 397.98642855 240.91950926 397.4375 237.78125 C394.67257857 235.15265897 392.31143983 234.29928352 388.58853149 233.70547485 C387.61317066 233.54906147 386.63780983 233.39264809 385.63289261 233.2314949 C379.77088062 232.40551158 373.9010191 231.67898768 368.02099609 230.99365234 C366.60538955 230.82615398 365.18981738 230.658365 363.77427673 230.49031067 C359.96284745 230.03877919 356.15091355 229.59165797 352.33883238 229.14566755 C349.14531845 228.77166871 345.95205328 228.39556897 342.75878108 228.01951277 C335.22335312 227.1321752 327.68749837 226.24853098 320.15136719 225.3671875 C312.39640979 224.46018365 304.64222519 223.54677787 296.88838708 222.63025892 C290.20826558 221.8408935 283.52767592 221.05558126 276.84670126 220.27346957 C272.86627603 219.80745427 268.88604417 219.33992386 264.90626144 218.86845016 C261.16552617 218.42546834 257.42422863 217.98757624 253.68245125 217.55348778 C251.66688616 217.31841744 249.65191869 217.07824026 247.63697815 216.83787537 C236.63652884 214.79450055 236.63652884 214.79450055 226.39926147 217.18785095 Z " fill="#5C68EB" transform="translate(92.5625,9.21875)"/>
<path d="M0 0 C0.74121094 0.01772461 1.48242188 0.03544922 2.24609375 0.05371094 C19.05199592 0.88547513 34.10866703 6.82846475 49.375 13.375 C51.36159842 14.21461484 53.34883579 15.05271927 55.33666992 15.8894043 C58.43097127 17.19227533 61.52464938 18.49647734 64.6158905 19.80659485 C72.06368091 22.96079459 79.54038815 26.03741271 87.03515625 29.078125 C89.13450384 29.93270477 91.23378856 30.787439 93.33300781 31.64233398 C96.35783668 32.87401537 99.3835097 34.10325271 102.41296387 35.32351685 C105.21273837 36.45259416 108.0071489 37.59410693 110.80078125 38.73828125 C111.61450699 39.06262146 112.42823273 39.38696167 113.26661682 39.72113037 C123.51632361 43.95219119 133.22145927 50.14242448 138.0625 60.5 C139.03374609 63.52800251 139.41067658 65.67005758 139.125 68.8125 C139.67841096 68.68460398 140.23182192 68.55670795 140.80200291 68.42493629 C145.98916834 67.24615206 151.17280108 66.23868731 156.42358398 65.39208984 C157.19887451 65.26500137 157.97416504 65.1379129 158.77294922 65.00697327 C161.3051939 64.59284593 163.83807166 64.1827812 166.37109375 63.7734375 C168.15031531 63.4848388 169.92953587 63.19623396 171.70875549 62.90762329 C175.42603045 62.30548986 179.14369277 61.70581041 182.86157227 61.10742188 C187.60449477 60.34350692 192.3457705 59.56983519 197.08673 58.79384422 C200.75694104 58.19487584 204.42826955 57.6029903 208.09993172 57.01298904 C209.84768647 56.73092719 211.59502703 56.44628533 213.34191704 56.15891647 C229.56678549 53.49458924 243.60432091 51.68240333 258 61.4375 C266.46769873 68.07834827 271.42397581 76.38984901 273.8125 86.8125 C275.11798012 99.34510911 272.3370442 110.96798838 264.4453125 120.93359375 C256.84044081 129.28001932 247.897914 132.73407611 237.07177734 134.67285156 C235.71566628 134.92305746 235.71566628 134.92305746 234.33215904 135.17831802 C221.30506423 137.55100595 208.23242875 139.66618502 195.1640625 141.796875 C193.75370144 142.027162 192.34334561 142.25748106 190.93299484 142.48783112 C184.31538218 143.56828107 177.69733058 144.64599067 171.07870829 145.72023845 C163.51029788 146.94874557 155.94357812 148.18707649 148.37810671 149.43355155 C142.47227037 150.40592007 136.56497273 151.36905905 130.65653455 152.32548928 C127.15155651 152.89308301 123.64729295 153.46440317 120.14455032 154.04564667 C85.78182168 159.73994921 85.78182168 159.73994921 68.875 155.75 C67.89756836 155.52594482 66.92013672 155.30188965 65.91308594 155.07104492 C46.85841186 150.51159993 30.11319776 142.26369264 13.28051758 132.41381836 C0.13137186 124.74213112 -10.50504086 122.69851044 -25.625 126.5625 C-31.52894701 128.28988262 -37.24944168 130.32401773 -42.875 132.8125 C-41.91916032 134.75123142 -40.96023808 136.6884433 -40 138.625 C-39.46632812 139.70394531 -38.93265625 140.78289062 -38.3828125 141.89453125 C-36.90278861 144.89088265 -36.90278861 144.89088265 -34.875 147.8125 C-34.4375 151.1875 -34.4375 151.1875 -34.875 154.8125 C-38.36311164 158.93004532 -42.4140161 161.56526394 -47.0625 164.1875 C-47.78010498 164.60104736 -48.49770996 165.01459473 -49.23706055 165.44067383 C-50.8589312 166.37441684 -52.48284395 167.30461863 -54.10839844 168.23193359 C-58.33862793 170.6486743 -62.55450789 173.0901698 -66.77270508 175.52783203 C-71.09128461 178.02196841 -75.41307816 180.51046851 -79.73852539 182.99267578 C-81.89625699 184.24462031 -84.04339941 185.51493728 -86.18139648 186.80029297 C-87.24044189 187.43467285 -88.2994873 188.06905273 -89.390625 188.72265625 C-90.3384082 189.29765869 -91.28619141 189.87266113 -92.26269531 190.46508789 C-96.26727567 192.53062799 -98.46095579 192.74177247 -102.875 191.8125 C-106.55614932 188.59862731 -108.99936159 185.29101682 -111.37109375 181.04296875 C-112.00474854 179.91938965 -112.63840332 178.79581055 -113.29125977 177.63818359 C-113.78494553 176.7495462 -113.78494553 176.7495462 -114.28860474 175.84295654 C-115.6904261 173.31975329 -117.1102047 170.80680604 -118.5287323 168.29296875 C-119.25608814 167.00346279 -119.98249398 165.71342052 -120.70796204 164.42285156 C-124.05409343 158.47358527 -127.48449188 152.57533423 -130.9375 146.6875 C-137.66848076 135.18459808 -144.33156385 123.6432551 -150.98388672 112.09472656 C-153.48927013 107.7463694 -155.9971843 103.39947496 -158.50537109 99.05273438 C-159.74420251 96.90572856 -160.98281206 94.75859472 -162.22119141 92.61132812 C-165.15161993 87.53037431 -168.08362965 82.45035075 -171.02090454 77.37335205 C-172.40938027 74.97319899 -173.79700833 72.57255639 -175.18457031 70.171875 C-176.1651883 68.47608382 -177.14703309 66.78100224 -178.12890625 65.0859375 C-179.01835937 63.54679687 -179.01835937 63.54679687 -179.92578125 61.9765625 C-180.44825439 61.07373535 -180.97072754 60.1709082 -181.5090332 59.24072266 C-184.20970188 54.4398557 -185.57353512 51.50057168 -184.875 45.8125 C-180.76045191 40.67358309 -175.27080823 37.98322885 -169.5625 34.875 C-167.50040734 33.73208158 -165.4392398 32.58749277 -163.37890625 31.44140625 C-162.3130127 30.8498877 -161.24711914 30.25836914 -160.14892578 29.64892578 C-153.725356 26.04578694 -147.38455714 22.3002204 -141.03393555 18.57055664 C-138.31793923 16.978147 -135.59846492 15.39209946 -132.875 13.8125 C-132.02421875 13.31886963 -131.1734375 12.82523926 -130.296875 12.31665039 C-129.50023437 11.86281982 -128.70359375 11.40898926 -127.8828125 10.94140625 C-126.83697998 10.34307983 -126.83697998 10.34307983 -125.77001953 9.73266602 C-122.92655287 8.35196183 -120.95852387 8.18177921 -117.875 8.8125 C-112.63276862 11.75326394 -110.51318929 16.65063061 -107.875 21.8125 C-102.75375071 20.3247473 -97.66951527 18.77029877 -92.6328125 17.015625 C-70.94931498 9.46725495 -48.75911075 3.2607106 -25.875 0.8125 C-25.19115234 0.73805664 -24.50730469 0.66361328 -23.80273438 0.58691406 C-15.85852897 -0.22143011 -7.97020398 -0.2811196 0 0 Z M-98.875 37.8125 C-96.88518849 41.48475376 -94.88214697 45.14970155 -92.875 48.8125 C-92.36018066 49.75343506 -92.36018066 49.75343506 -91.83496094 50.71337891 C-86.19195805 61.00845522 -80.37120403 71.19075926 -74.42456055 81.31347656 C-71.15576387 86.88165063 -67.92627968 92.46858653 -64.75 98.08984375 C-63.72804747 99.89057132 -62.70545564 101.69093445 -61.68270874 103.49121094 C-60.70242616 105.22362165 -59.73162781 106.96138794 -58.76098633 108.69921875 C-58.16568115 109.7459375 -57.57037598 110.79265625 -56.95703125 111.87109375 C-56.43343018 112.80236084 -55.9098291 113.73362793 -55.37036133 114.69311523 C-53.98127162 117.10643821 -53.98127162 117.10643821 -50.875 117.8125 C-48.57855916 116.99340631 -46.41072499 116.1102508 -44.1875 115.125 C-27.008116 107.97092566 -7.82040907 103.7821964 10.16845703 110.93847656 C17.76333155 114.33124556 24.92124505 118.67444611 32.125 122.8125 C56.18483194 136.52094856 79.50370468 143.33532443 107.25024414 138.7487793 C108.63452259 138.52632643 110.01892073 138.30461734 111.40342712 138.08358765 C115.13192832 137.4860342 118.85859352 136.87770027 122.58494878 136.26692557 C126.5031302 135.62624326 130.4227432 134.99442995 134.34214783 134.36128235 C140.92058787 133.29716129 147.49785717 132.22603056 154.07446289 131.15063477 C161.65573746 129.91104213 169.23872804 128.68242284 176.82274157 127.45970792 C184.14775113 126.27850167 191.47150051 125.08965186 198.79470634 123.89731789 C201.89811167 123.39215942 205.00192156 122.88960464 208.10609627 122.3891964 C211.76713844 121.7986517 215.42702056 121.20136317 219.0861454 120.59905624 C221.05387227 120.27673514 223.0226619 119.9609227 224.9914856 119.64537048 C240.10814872 117.45730599 240.10814872 117.45730599 252.125 108.8125 C256.15045804 102.99522222 257.89270327 96.548017 256.75390625 89.5234375 C254.84259945 82.6142415 250.95305747 77.26138035 244.90234375 73.390625 C229.34060316 66.00196117 203.16488815 74.79590454 186.73071289 77.375 C182.69221696 78.00648253 178.65129469 78.615966 174.60668945 79.20703125 C169.69056415 79.92569077 164.78176708 80.68260099 159.87571526 81.46699524 C158.01551332 81.75785059 156.15316218 82.03530374 154.2888813 82.29875183 C144.27471001 83.37483081 144.27471001 83.37483081 135.65866089 87.95629883 C133.4751443 91.13967283 132.33919869 94.16990393 131.125 97.8125 C129.34375 98.83984375 129.34375 98.83984375 127.125 99.8125 C124.85771313 101.09383642 122.59943018 102.38975519 120.34375 103.69140625 C113.2294872 107.28611298 103.56902189 106.86227978 95.97070312 105.06738281 C92.8739652 103.97824953 89.88394066 102.74985836 86.875 101.4375 C85.72314209 100.96070801 84.57128418 100.48391602 83.38452148 99.99267578 C80.77484606 98.91213974 78.17320519 97.81450556 75.57568359 96.70507812 C70.56084374 94.56573873 65.52441943 92.47921415 60.48828125 90.390625 C50.58811438 86.27734381 40.70031484 82.13584556 30.82891846 77.95397949 C27.9461321 76.73698957 25.05884934 75.53104424 22.17138672 74.32519531 C20.23783502 73.51135443 18.30440053 72.69723502 16.37109375 71.8828125 C15.4592482 71.50462372 14.54740265 71.12643494 13.60792542 70.73678589 C12.35458656 70.20602951 12.35458656 70.20602951 11.07592773 69.66455078 C10.33543686 69.35446075 9.59494598 69.04437073 8.83201599 68.72488403 C7.125 67.8125 7.125 67.8125 6.125 65.8125 C5.67429577 58.71390845 5.67429577 58.71390845 7.125 55.8125 C10.81482759 53.9675862 15.17731993 54.29745659 19.09899902 55.33450317 C21.1572592 56.08525671 23.16171769 56.91377223 25.171875 57.78515625 C25.9290834 58.09982346 26.68629181 58.41449066 27.46644592 58.73869324 C29.94171553 59.77096816 32.40813383 60.82282081 34.875 61.875 C36.60189578 62.59932289 38.32936244 63.3222861 40.05737305 64.04394531 C43.62979315 65.53833545 47.1987828 67.0405077 50.76513672 68.54931641 C58.36734452 71.76383924 65.99120158 74.92619913 73.6126709 78.09469604 C76.59947662 79.33807449 79.58405038 80.5867554 82.568573 81.83560181 C84.56863465 82.67140853 86.56991527 83.50420934 88.57177734 84.33569336 C90.77767419 85.25251829 92.98153436 86.17428009 95.18212891 87.10375977 C96.0591748 87.46783936 96.9362207 87.83191895 97.83984375 88.20703125 C98.56679443 88.51229736 99.29374512 88.81756348 100.04272461 89.13208008 C105.06349267 90.7727039 109.53372275 90.38295788 114.4375 88.625 C119.32127853 85.3312889 121.88288164 81.57141237 123.125 75.8125 C123.23013877 69.98313939 121.73108085 66.4781598 118.125 61.8125 C115.70236844 60.27295092 113.52545095 59.0576597 110.9453125 57.875 C110.24157501 57.53855469 109.53783752 57.20210938 108.81277466 56.85546875 C101.74957358 53.52908079 94.53282158 50.580069 87.27416992 47.71133423 C83.26813898 46.12800587 79.27079903 44.52303382 75.2734375 42.91796875 C74.44660461 42.58637253 73.61977173 42.25477631 72.7678833 41.91313171 C66.72651401 39.48112193 60.71981247 36.97388401 54.7265625 34.42578125 C53.87649628 34.06475311 53.02643005 33.70372498 52.15060425 33.33175659 C48.06382948 31.59395608 43.98086542 29.84773917 39.90185547 28.09179688 C-6.49971591 8.23988922 -53.46678663 20.19539835 -98.875 37.8125 Z M-131.90625 33.06640625 C-132.79298401 33.57420876 -132.79298401 33.57420876 -133.69763184 34.0922699 C-134.95348702 34.81311946 -136.20755489 35.53709042 -137.45996094 36.26391602 C-139.33663163 37.35273911 -141.21845983 38.43211327 -143.1015625 39.50976562 C-150.48609871 43.75287269 -157.73559596 48.16471856 -164.875 52.8125 C-160.48128185 61.24402059 -155.92300533 69.54295448 -151.06958008 77.71875 C-147.22427264 84.19987863 -143.44902755 90.71992626 -139.6875 97.25 C-139.04997803 98.35641846 -138.41245605 99.46283691 -137.75561523 100.6027832 C-136.44706705 102.87423458 -135.13871905 105.14580128 -133.83056641 107.41748047 C-130.06486796 113.95503385 -126.29395325 120.48958253 -122.52099609 127.02294922 C-119.6174968 132.05207512 -116.71762756 137.08317116 -113.83224487 142.12271118 C-112.81622816 143.89682545 -111.79893072 145.67019919 -110.78125 147.44335938 C-109.50917708 149.66065314 -108.23947715 151.87931075 -106.97265625 154.09960938 C-103.48962045 160.16396171 -99.84651264 166.05530382 -95.875 171.8125 C-88.25669825 168.15085129 -80.96355074 164.04637811 -73.6875 159.75 C-71.61081793 158.52970819 -69.53399859 157.30964996 -67.45703125 156.08984375 C-66.49490723 155.52378418 -65.5327832 154.95772461 -64.54150391 154.37451172 C-61.333309 152.49518275 -58.10909331 150.64683015 -54.875 148.8125 C-63.34623047 133.2126637 -71.92940561 117.66430052 -80.98657227 102.39575195 C-86.71257617 92.73750134 -92.28576919 82.99022022 -97.88867188 73.26025391 C-99.88744232 69.79090334 -101.88849427 66.3228806 -103.890625 62.85546875 C-110.24224836 51.85450096 -116.59202863 40.85286503 -122.875 29.8125 C-126.74723896 29.8125 -128.55260302 31.13636949 -131.90625 33.06640625 Z " fill="#4F73E7" transform="translate(189.875,320.1875)"/>
<path d="M0 0 C1.60523838 1.3705856 3.18793609 2.76790446 4.75 4.1875 C5.66523438 5.00992188 6.58046875 5.83234375 7.5234375 6.6796875 C24.48428022 22.71116897 33.3151845 44.98394281 34 68.125 C33.71979652 92.39062164 24.48937742 114.21876262 7.55078125 131.5078125 C-10.23732747 148.52683982 -33.07148157 155.72501152 -57.3203125 155.40234375 C-80.80095847 154.67112828 -101.99066673 143.28543858 -117.9375 126.4375 C-133.58553074 108.35408702 -140.54973797 85.86636265 -139.25 62.1875 C-137.07993279 41.43835627 -128.93250741 23.07826992 -114.25 8.1875 C-113.62609375 7.49140625 -113.0021875 6.7953125 -112.359375 6.078125 C-83.95787125 -24.71005974 -31.92622229 -24.45839321 0 0 Z M-104.25 22.1875 C-116.16670012 35.76251114 -123.15887777 53.06577223 -122.53515625 71.31640625 C-121.20387444 84.72040799 -117.28362243 96.72530048 -110.25 108.1875 C-107.92974452 105.20331599 -105.95661884 102.10707832 -104 98.875 C-97.33300905 88.4673164 -88.4315407 81.43052126 -76.6953125 77.28515625 C-71.11646189 76.2428443 -67.60413727 78.29448432 -62.78515625 80.9609375 C-55.92214799 84.28140683 -49.45097655 83.45133686 -42.421875 81.09375 C-40.09661162 80.20954421 -40.09661162 80.20954421 -37.6875 78.4375 C-33.74127691 76.41379585 -30.44261683 77.03696794 -26.25 78.1875 C-13.70262229 83.33467246 -5.42559922 91.93312021 1.15625 103.46484375 C2.61634453 106.22252969 2.61634453 106.22252969 4.75 108.1875 C15.25069643 88.30850937 19.67863937 70.39841705 13.75 48.1875 C10.47994091 38.20962741 5.49960731 30.18171574 -1.25 22.1875 C-1.79140625 21.53265625 -2.3328125 20.8778125 -2.890625 20.203125 C-14.98027073 6.89230293 -32.77762102 0.68258224 -50.25 -0.8125 C-71.14016582 -1.53059945 -89.93893549 7.36698012 -104.25 22.1875 Z M-79.125 96.5 C-87.92373402 103.91655741 -94.18224828 111.70445161 -96.25 123.1875 C-78.51717577 135.08941491 -60.43975819 141.269101 -38.90429688 137.15649414 C-28.20942739 134.82820263 -16.73534582 130.46758624 -9.25 122.1875 C-12.86471171 110.62042252 -18.35298304 102.40332509 -28.25 95.1875 C-30.86148378 94.07347418 -31.8881791 94.07405781 -34.6171875 94.9296875 C-35.44476563 95.30351562 -36.27234375 95.67734375 -37.125 96.0625 C-48.16153975 100.73490369 -57.9724864 99.60149623 -69.25 96.1875 C-70.3225 95.671875 -71.395 95.15625 -72.5 94.625 C-75.84864706 94.09226069 -76.41279157 94.60459565 -79.125 96.5 Z " fill="#5270E8" transform="translate(285.25,86.8125)"/>
<path d="M0 0 C7.86569204 5.70392899 13.94929199 12.75738837 15.671875 22.5234375 C16.74881671 34.62241223 15.10340035 44.14392226 7.43359375 53.70703125 C4.24903549 56.99044497 0.65769515 59.31749221 -3.328125 61.5234375 C-4.23304688 62.03583984 -4.23304688 62.03583984 -5.15625 62.55859375 C-12.59442845 66.03513368 -21.90803632 65.68120229 -29.68359375 63.64453125 C-40.14423748 59.62732586 -46.07611902 53.94351441 -51.19921875 44.07421875 C-54.6378276 36.3046285 -54.61263569 25.7837813 -52.265625 17.6484375 C-48.36563307 7.97135473 -40.81051081 1.4604299 -31.828125 -3.3515625 C-21.83061247 -6.67746766 -8.85259476 -5.61456513 0 0 Z M-33.140625 19.5859375 C-36.73626967 24.41437463 -36.85791452 28.70574879 -36.328125 34.5234375 C-34.514159 39.96533549 -30.94549862 43.30177 -26.328125 46.5234375 C-21.1989146 48.2331743 -16.26665284 48.16961345 -11.140625 46.4609375 C-6.67186045 43.38245525 -3.06087669 39.72169256 -1.328125 34.5234375 C-0.7645582 28.83358039 -1.00016067 24.35435347 -4.328125 19.5234375 C-8.92382929 14.89513956 -12.46207464 12.40585679 -19.140625 12.2109375 C-25.55502797 12.29484684 -29.00316926 14.87252911 -33.140625 19.5859375 Z " fill="#5270E8" transform="translate(251.328125,102.4765625)"/>
</svg>
